<svg width="92" height="89" viewBox="0 0 92 89" fill="none" xmlns="http://www.w3.org/2000/svg">
<path d="M39.0192 58.8215H19.543V78.298H39.0192V58.8215Z" fill="#CBCBBF"/>
<path d="M39.085 0.0288086H19.543V19.574H39.085V0.0288086Z" fill="#FFF9DF"/>
<path d="M39.085 0.0288086H19.543V19.574H39.085V0.0288086Z" fill="#00599B"/>
<mask id="mask0_1737_4475" style="mask-type:luminance" maskUnits="userSpaceOnUse" x="19" y="0" width="21" height="20">
<path d="M39.0811 0.0285645H19.5391V19.5737H39.0811V0.0285645Z" fill="white"/>
</mask>
<g mask="url(#mask0_1737_4475)">
<path d="M48.8327 20.2633C49.2139 14.8796 45.1586 10.2062 39.7749 9.82496C34.3912 9.44377 29.7179 13.4992 29.3367 18.8829C28.9555 24.2667 33.0108 28.9401 38.3945 29.3213C43.7782 29.7025 48.4515 25.6471 48.8327 20.2633Z" fill="#EE2A2E"/>
<path d="M29.2677 0.987812C29.7955 -4.38356 25.8692 -9.16698 20.4981 -9.69626C15.1269 -10.2255 10.3449 -6.30023 9.81704 -0.928859C9.28922 4.44252 13.2155 9.22594 18.5867 9.75521C23.9578 10.2845 28.7399 6.35919 29.2677 0.987812Z" fill="#EE2A2E"/>
</g>
<path d="M87.9419 35.1434C89.0365 35.1434 89.9238 34.256 89.9238 33.1614C89.9238 32.0668 89.0365 31.1794 87.9419 31.1794C86.8473 31.1794 85.96 32.0668 85.96 33.1614C85.96 34.256 86.8473 35.1434 87.9419 35.1434Z" fill="#00599B"/>
<path d="M87.9419 42.6224C89.0365 42.6224 89.9238 41.735 89.9238 40.6404C89.9238 39.5458 89.0365 38.6584 87.9419 38.6584C86.8473 38.6584 85.96 39.5458 85.96 40.6404C85.96 41.735 86.8473 42.6224 87.9419 42.6224Z" fill="#00599B"/>
<path d="M88.0743 12.0093H87.814C86.9643 12.0093 86.2754 12.6982 86.2754 13.548V24.6533C86.2754 25.5031 86.9643 26.192 87.814 26.192H88.0743C88.9241 26.192 89.6129 25.5031 89.6129 24.6533V13.548C89.6129 12.6982 88.9241 12.0093 88.0743 12.0093Z" stroke="#00599B" stroke-width="2.13" stroke-linecap="round" stroke-linejoin="round"/>
<path d="M90.0003 6.98114C90.0003 7.38784 89.8797 7.78541 89.6537 8.12357C89.4278 8.46173 89.1066 8.7253 88.7309 8.88094C88.3552 9.03658 87.9417 9.0773 87.5428 8.99796C87.1439 8.91861 86.7775 8.72277 86.49 8.43518C86.2024 8.1476 86.0066 7.7812 85.9272 7.38231C85.8479 6.98342 85.8886 6.56996 86.0442 6.19421C86.1999 5.81847 86.4634 5.49731 86.8016 5.27136C87.1397 5.04541 87.5373 4.9248 87.944 4.9248C88.4894 4.9248 89.0124 5.14145 89.398 5.52709C89.7837 5.91273 90.0003 6.43576 90.0003 6.98114Z" stroke="#00599B" stroke-width="2.13" stroke-linecap="round" stroke-linejoin="round"/>
<path d="M58.5635 58.8215H39.0244V78.361H58.5635V58.8215Z" fill="#00599B"/>
<path d="M39.0205 60.8035C39.0205 60.8035 39.8299 69.2862 48.7958 67.8019L39.0205 60.8035Z" fill="#EE2A2E"/>
<path d="M39.0205 60.8034C39.0205 60.8034 47.3143 58.8358 48.7929 67.8018L39.0205 60.8034Z" fill="#030F4B"/>
<path d="M58.5712 60.8035C58.5712 60.8035 57.7733 69.2862 48.7959 67.8104L58.5712 60.8035Z" fill="#EE2A2E"/>
<path d="M58.5703 60.8034C58.5703 60.8034 50.2764 58.8358 48.7979 67.8018L58.5703 60.8034Z" fill="#030F4B"/>
<path d="M39.0205 68.7998C39.0205 68.7998 39.8299 77.2825 48.7958 75.7982L39.0205 68.7998Z" fill="#EE2A2E"/>
<path d="M39.0205 68.7998C39.0205 68.7998 47.3143 66.8321 48.7929 75.7982L39.0205 68.7998Z" fill="#030F4B"/>
<path d="M58.5712 68.7998C58.5712 68.7998 57.7618 77.2825 48.7959 75.7982L58.5712 68.7998Z" fill="#EE2A2E"/>
<path d="M58.5703 68.7998C58.5703 68.7998 50.2764 66.8321 48.7979 75.7982L58.5703 68.7998Z" fill="#030F4B"/>
<path d="M49.2624 58.8215H48.3271V78.361H49.2624V58.8215Z" fill="#030F4B"/>
<path d="M58.6293 0.0571289V19.588H39.1045C39.1041 17.0235 39.6088 14.4841 40.5899 12.1147C41.5709 9.74534 43.009 7.59238 44.822 5.77877C46.6351 3.96516 48.7876 2.52642 51.1566 1.5447C53.5257 0.562983 56.0649 0.0575045 58.6293 0.0571289Z" fill="#CBCBBF"/>
<path d="M78.1652 19.588H58.6289V0.0571308C61.1943 0.0560036 63.7347 0.560373 66.1051 1.54142C68.4755 2.52247 70.6294 3.96097 72.4436 5.77473C74.2579 7.58848 75.697 9.74195 76.6787 12.1121C77.6604 14.4822 78.1656 17.0226 78.1652 19.588Z" fill="#FFAE2D"/>
<path d="M58.6719 19.6479C63.8525 19.6479 68.8209 21.706 72.4841 25.3692C76.1473 29.0325 78.2053 34.001 78.2053 39.1817C73.0247 39.1817 68.0563 37.1237 64.3931 33.4604C60.7299 29.7971 58.6719 24.8286 58.6719 19.6479Z" fill="#030F4B"/>
<path d="M58.5852 19.6479C58.5852 24.8286 56.5272 29.7971 52.864 33.4604C49.2007 37.1237 44.2323 39.1817 39.0518 39.1817C39.0518 34.001 41.1097 29.0325 44.773 25.3692C48.4362 21.706 53.4046 19.6479 58.5852 19.6479Z" fill="#EE2A2E"/>
<path d="M58.5852 19.6079C53.4046 19.6079 48.4362 17.5499 44.773 13.8866C41.1097 10.2234 39.0518 5.25488 39.0518 0.074219C41.617 0.0738433 44.1572 0.578842 46.5273 1.56037C48.8974 2.5419 51.0509 3.98073 52.8648 5.79468C54.6787 7.60862 56.1175 9.76215 57.099 12.1323C58.0806 14.5024 58.5856 17.0426 58.5852 19.6079Z" fill="#EE2A2E"/>
<path d="M58.6719 19.5882C58.6719 14.4075 60.7299 9.43902 64.3931 5.77574C68.0563 2.11245 73.0247 0.0544434 78.2053 0.0544434C78.2053 5.23511 76.1473 10.2036 72.4841 13.8669C68.8209 17.5302 63.8525 19.5882 58.6719 19.5882Z" fill="#030F4B"/>
<path d="M19.5453 39.3362H0.0605469V58.8213H19.5453V39.3362Z" fill="#00599B"/>
<path d="M39.059 19.5708H19.5742V39.0559H39.059V19.5708Z" fill="#FFAE2D"/>
<path d="M33.3139 75.5323V50.5446C33.3139 49.0995 33.0292 47.6686 32.4761 46.3335C31.923 44.9985 31.1123 43.7854 30.0904 42.7637C29.0684 41.742 27.8552 40.9317 26.5201 40.3789C25.1849 39.8262 23.7539 39.5419 22.3088 39.5422H19.6348" stroke="#00599B" stroke-width="4.26" stroke-linecap="round" stroke-linejoin="round"/>
<path d="M34.7893 42.7248C36.7904 34.3635 31.6347 25.9632 23.2736 23.962C14.9125 21.9608 6.51224 27.1166 4.51109 35.4779C2.50995 43.8391 7.6657 52.2395 16.0268 54.2406C24.3879 56.2418 32.7881 51.086 34.7893 42.7248Z" fill="#FFF9DF"/>
<path d="M19.7324 53.6218V24.3384" stroke="#FFAE2D" stroke-width="1.43" stroke-linecap="round" stroke-linejoin="round"/>
<path d="M5.10059 38.9758H34.3893" stroke="#FFAE2D" stroke-width="1.43" stroke-linecap="round" stroke-linejoin="round"/>
<path d="M9.3877 49.3321L30.0965 28.6287" stroke="#FFAE2D" stroke-width="1.43" stroke-linecap="round" stroke-linejoin="round"/>
<path d="M9.3877 28.6287L30.0965 49.3378" stroke="#FFAE2D" stroke-width="1.43" stroke-linecap="round" stroke-linejoin="round"/>
<path d="M6.05957 44.1924L33.4264 33.7764" stroke="#FFAE2D" stroke-width="1.43" stroke-linecap="round" stroke-linejoin="round"/>
<path d="M14.5303 25.2937L24.9605 52.6524" stroke="#FFAE2D" stroke-width="1.43" stroke-linecap="round" stroke-linejoin="round"/>
<path d="M6.37891 32.99L33.1051 44.9648" stroke="#FFAE2D" stroke-width="1.43" stroke-linecap="round" stroke-linejoin="round"/>
<path d="M25.739 25.6143L13.7559 52.3409" stroke="#FFAE2D" stroke-width="1.43" stroke-linecap="round" stroke-linejoin="round"/>
<path d="M19.6557 50.819C26.1269 50.819 31.3729 45.573 31.3729 39.1016C31.3729 32.6303 26.1269 27.3843 19.6557 27.3843C13.1844 27.3843 7.93848 32.6303 7.93848 39.1016C7.93848 45.573 13.1844 50.819 19.6557 50.819Z" fill="#FFAE2D"/>
<path d="M14.9572 33.5191C14.9572 33.6888 14.9069 33.8547 14.8126 33.9958C14.7183 34.1369 14.5843 34.2469 14.4275 34.3118C14.2708 34.3768 14.0982 34.3937 13.9318 34.3606C13.7654 34.3275 13.6125 34.2458 13.4925 34.1258C13.3725 34.0058 13.2908 33.853 13.2577 33.6865C13.2246 33.5201 13.2416 33.3476 13.3065 33.1908C13.3715 33.034 13.4814 32.9 13.6225 32.8057C13.7636 32.7115 13.9295 32.6611 14.0992 32.6611C14.3267 32.6611 14.545 32.7515 14.7059 32.9124C14.8668 33.0733 14.9572 33.2916 14.9572 33.5191Z" fill="#030F4B"/>
<path d="M18.8449 33.5191C18.8449 33.6888 18.7946 33.8547 18.7003 33.9958C18.606 34.1369 18.472 34.2469 18.3152 34.3118C18.1584 34.3768 17.9859 34.3937 17.8195 34.3606C17.6531 34.3275 17.5002 34.2458 17.3802 34.1258C17.2602 34.0058 17.1785 33.853 17.1454 33.6865C17.1123 33.5201 17.1293 33.3476 17.1942 33.1908C17.2592 33.034 17.3691 32.9 17.5102 32.8057C17.6513 32.7115 17.8172 32.6611 17.9869 32.6611C18.2144 32.6611 18.4327 32.7515 18.5936 32.9124C18.7545 33.0733 18.8449 33.2916 18.8449 33.5191Z" fill="#030F4B"/>
<path d="M22.7287 33.5191C22.7287 33.6888 22.6783 33.8547 22.5841 33.9958C22.4898 34.1369 22.3558 34.2469 22.199 34.3118C22.0422 34.3768 21.8697 34.3937 21.7033 34.3606C21.5369 34.3275 21.384 34.2458 21.264 34.1258C21.144 34.0058 21.0623 33.853 21.0292 33.6865C20.9961 33.5201 21.0131 33.3476 21.078 33.1908C21.1429 33.034 21.2529 32.9 21.394 32.8057C21.5351 32.7115 21.701 32.6611 21.8707 32.6611C22.0982 32.6611 22.3165 32.7515 22.4774 32.9124C22.6383 33.0733 22.7287 33.2916 22.7287 33.5191Z" fill="#030F4B"/>
<path d="M26.6134 33.5191C26.6134 33.6888 26.5631 33.8547 26.4688 33.9958C26.3746 34.1369 26.2406 34.2469 26.0838 34.3118C25.927 34.3768 25.7545 34.3937 25.5881 34.3606C25.4216 34.3275 25.2688 34.2458 25.1488 34.1258C25.0288 34.0058 24.9471 33.853 24.9139 33.6865C24.8808 33.5201 24.8978 33.3476 24.9628 33.1908C25.0277 33.034 25.1377 32.9 25.2788 32.8057C25.4199 32.7115 25.5858 32.6611 25.7554 32.6611C25.983 32.6611 26.2012 32.7515 26.3621 32.9124C26.523 33.0733 26.6134 33.2916 26.6134 33.5191Z" fill="#030F4B"/>
<path d="M14.9083 37.3573C14.9083 37.527 14.858 37.6928 14.7638 37.8339C14.6695 37.975 14.5355 38.085 14.3787 38.15C14.2219 38.2149 14.0494 38.2319 13.883 38.1988C13.7165 38.1657 13.5637 38.084 13.4437 37.964C13.3237 37.844 13.242 37.6911 13.2089 37.5247C13.1758 37.3582 13.1928 37.1857 13.2577 37.0289C13.3226 36.8721 13.4326 36.7381 13.5737 36.6439C13.7148 36.5496 13.8807 36.4993 14.0504 36.4993C14.2779 36.4993 14.4961 36.5897 14.6571 36.7506C14.818 36.9115 14.9083 37.1297 14.9083 37.3573Z" fill="#030F4B"/>
<path d="M18.796 37.357C18.796 37.5267 18.7457 37.6926 18.6514 37.8337C18.5572 37.9748 18.4232 38.0848 18.2664 38.1497C18.1096 38.2146 17.9371 38.2316 17.7707 38.1985C17.6042 38.1654 17.4514 38.0837 17.3314 37.9637C17.2114 37.8437 17.1297 37.6908 17.0966 37.5244C17.0635 37.358 17.0804 37.1855 17.1454 37.0287C17.2103 36.8719 17.3203 36.7379 17.4614 36.6436C17.6025 36.5493 17.7684 36.499 17.9381 36.499C18.1656 36.499 18.3838 36.5894 18.5447 36.7503C18.7057 36.9112 18.796 37.1295 18.796 37.357Z" fill="#030F4B"/>
<path d="M22.6828 37.357C22.6828 37.5267 22.6324 37.6926 22.5382 37.8337C22.4439 37.9748 22.3099 38.0848 22.1531 38.1497C21.9963 38.2146 21.8238 38.2316 21.6574 38.1985C21.491 38.1654 21.3381 38.0837 21.2181 37.9637C21.0981 37.8437 21.0164 37.6908 20.9833 37.5244C20.9502 37.358 20.9672 37.1855 21.0321 37.0287C21.097 36.8719 21.207 36.7379 21.3481 36.6436C21.4892 36.5493 21.6551 36.499 21.8248 36.499C22.0523 36.499 22.2706 36.5894 22.4315 36.7503C22.5924 36.9112 22.6828 37.1295 22.6828 37.357Z" fill="#030F4B"/>
<path d="M26.5685 37.3573C26.5685 37.527 26.5182 37.6928 26.4239 37.8339C26.3296 37.975 26.1956 38.085 26.0389 38.15C25.8821 38.2149 25.7096 38.2319 25.5431 38.1988C25.3767 38.1657 25.2238 38.084 25.1038 37.964C24.9838 37.844 24.9021 37.6911 24.869 37.5247C24.8359 37.3582 24.8529 37.1857 24.9179 37.0289C24.9828 36.8721 25.0928 36.7381 25.2339 36.6439C25.3749 36.5496 25.5408 36.4993 25.7105 36.4993C25.9381 36.4993 26.1563 36.5897 26.3172 36.7506C26.4781 36.9115 26.5685 37.1297 26.5685 37.3573Z" fill="#030F4B"/>
<path d="M14.8722 41.1954C14.8722 41.3651 14.8219 41.531 14.7276 41.6721C14.6333 41.8132 14.4993 41.9231 14.3426 41.9881C14.1858 42.053 14.0133 42.07 13.8468 42.0369C13.6804 42.0038 13.5275 41.9221 13.4075 41.8021C13.2876 41.6821 13.2058 41.5292 13.1727 41.3628C13.1396 41.1963 13.1566 41.0238 13.2216 40.8671C13.2865 40.7103 13.3965 40.5763 13.5376 40.482C13.6787 40.3877 13.8445 40.3374 14.0142 40.3374C14.2418 40.3374 14.46 40.4278 14.6209 40.5887C14.7818 40.7496 14.8722 40.9678 14.8722 41.1954Z" fill="#030F4B"/>
<path d="M18.7482 41.1952C18.7482 41.3649 18.6979 41.5307 18.6036 41.6718C18.5093 41.8129 18.3753 41.9229 18.2185 41.9878C18.0618 42.0528 17.8893 42.0698 17.7228 42.0367C17.5564 42.0036 17.4035 41.9218 17.2835 41.8019C17.1635 41.6819 17.0818 41.529 17.0487 41.3625C17.0156 41.1961 17.0326 41.0236 17.0975 40.8668C17.1625 40.71 17.2724 40.576 17.4135 40.4818C17.5546 40.3875 17.7205 40.3372 17.8902 40.3372C18.1178 40.3372 18.336 40.4276 18.4969 40.5885C18.6578 40.7494 18.7482 40.9676 18.7482 41.1952Z" fill="#030F4B"/>
<path d="M22.6339 41.1952C22.6339 41.3649 22.5836 41.5307 22.4893 41.6718C22.3951 41.8129 22.2611 41.9229 22.1043 41.9878C21.9475 42.0528 21.775 42.0698 21.6086 42.0367C21.4421 42.0036 21.2893 41.9218 21.1693 41.8019C21.0493 41.6819 20.9676 41.529 20.9345 41.3625C20.9013 41.1961 20.9183 41.0236 20.9833 40.8668C21.0482 40.71 21.1582 40.576 21.2993 40.4818C21.4404 40.3875 21.6063 40.3372 21.776 40.3372C22.0035 40.3372 22.2217 40.4276 22.3826 40.5885C22.5435 40.7494 22.6339 40.9676 22.6339 41.1952Z" fill="#030F4B"/>
<path d="M26.5207 41.1952C26.5207 41.3649 26.4703 41.5307 26.3761 41.6718C26.2818 41.8129 26.1478 41.9229 25.991 41.9878C25.8342 42.0528 25.6617 42.0698 25.4953 42.0367C25.3289 42.0036 25.176 41.9218 25.056 41.8019C24.936 41.6819 24.8543 41.529 24.8212 41.3625C24.7881 41.1961 24.8051 41.0236 24.87 40.8668C24.9349 40.71 25.0449 40.576 25.186 40.4818C25.3271 40.3875 25.493 40.3372 25.6627 40.3372C25.8902 40.3372 26.1085 40.4276 26.2694 40.5885C26.4303 40.7494 26.5207 40.9676 26.5207 41.1952Z" fill="#030F4B"/>
<path d="M14.8146 45.0335C14.8146 45.2032 14.7643 45.3691 14.67 45.5102C14.5757 45.6513 14.4417 45.7613 14.285 45.8262C14.1282 45.8912 13.9557 45.9081 13.7892 45.875C13.6228 45.8419 13.4699 45.7602 13.3499 45.6402C13.2299 45.5202 13.1482 45.3674 13.1151 45.2009C13.082 45.0345 13.099 44.862 13.1639 44.7052C13.2289 44.5484 13.3389 44.4144 13.4799 44.3201C13.621 44.2259 13.7869 44.1755 13.9566 44.1755C14.1842 44.1755 14.4024 44.2659 14.5633 44.4268C14.7242 44.5877 14.8146 44.806 14.8146 45.0335Z" fill="#030F4B"/>
<path d="M17.8503 45.8857C18.321 45.8857 18.7026 45.5041 18.7026 45.0334C18.7026 44.5627 18.321 44.1812 17.8503 44.1812C17.3796 44.1812 16.998 44.5627 16.998 45.0334C16.998 45.5041 17.3796 45.8857 17.8503 45.8857Z" fill="#030F4B"/>
<path d="M22.5929 45.0333C22.5929 45.203 22.5426 45.3689 22.4483 45.51C22.354 45.6511 22.22 45.761 22.0633 45.826C21.9065 45.8909 21.734 45.9079 21.5676 45.8748C21.4011 45.8417 21.2482 45.76 21.1282 45.64C21.0083 45.52 20.9265 45.3671 20.8934 45.2007C20.8603 45.0342 20.8773 44.8617 20.9423 44.7049C21.0072 44.5482 21.1172 44.4142 21.2583 44.3199C21.3994 44.2256 21.5652 44.1753 21.7349 44.1753C21.9625 44.1753 22.1807 44.2657 22.3416 44.4266C22.5025 44.5875 22.5929 44.8057 22.5929 45.0333Z" fill="#030F4B"/>
<path d="M25.6189 45.8857C26.0896 45.8857 26.4711 45.5041 26.4711 45.0334C26.4711 44.5627 26.0896 44.1812 25.6189 44.1812C25.1482 44.1812 24.7666 44.5627 24.7666 45.0334C24.7666 45.5041 25.1482 45.8857 25.6189 45.8857Z" fill="#030F4B"/>
<path d="M19.4762 0.0285645H0V19.5051H19.4762V0.0285645Z" fill="#CBCBBF"/>
<path d="M0 0C5.18058 0 10.149 2.05801 13.8122 5.72129C17.4754 9.38458 19.5334 14.3531 19.5334 19.5337C14.3528 19.5337 9.38443 17.4757 5.72121 13.8124C2.05798 10.1491 0 5.18066 0 0Z" fill="#030F4B"/>
<path d="M6.67007 55.3035L7.91415 57.5772L10.1878 58.8213L7.91415 60.0653L6.67007 62.339L5.426 60.0653L3.15234 58.8213L5.426 57.5772L6.67007 55.3035Z" fill="#FFAE2D"/>
<path d="M19.6491 78.2744H0V89.2264H19.6491V78.2744Z" fill="#00599B"/>
</svg>
