<svg width="233" height="89" viewBox="0 0 233 89" fill="none" xmlns="http://www.w3.org/2000/svg">
<path d="M213.636 58.0649H194.27V77.4313H213.636V58.0649Z" fill="#030F4B"/>
<path d="M194.185 29.2612C194.163 31.585 193.306 33.8234 191.771 35.5679C190.235 37.3125 188.124 38.4467 185.822 38.7638C183.52 39.0808 181.18 38.5594 179.231 37.2947C177.281 36.0301 175.851 34.1065 175.202 31.8751C174.553 29.6437 174.728 27.2533 175.695 25.1401C176.661 23.0269 178.356 21.3319 180.469 20.3643C182.582 19.3968 184.972 19.2214 187.204 19.8699C189.435 20.5185 191.359 21.9479 192.624 23.8973C189.674 25.7364 184.5 29.1674 184.5 29.1674L194.185 29.2612Z" fill="#030F4B"/>
<path d="M182.808 22.0696C182.808 22.0696 186.369 35.9981 186.443 36.2824" stroke="#00599B" stroke-width="1.67" stroke-linecap="round" stroke-linejoin="round"/>
<path d="M184.615 29.1787L177.509 30.9951" stroke="#00599B" stroke-width="1.67" stroke-linecap="round" stroke-linejoin="round"/>
<path d="M188.365 22.8655L180.887 35.4864" stroke="#00599B" stroke-width="1.67" stroke-linecap="round" stroke-linejoin="round"/>
<path d="M190.935 32.9168L178.314 25.438" stroke="#00599B" stroke-width="1.67" stroke-linecap="round" stroke-linejoin="round"/>
<path d="M190.619 24.9463L178.632 33.4057" stroke="#00599B" stroke-width="1.67" stroke-linecap="round" stroke-linejoin="round"/>
<path d="M188.854 35.1683L180.395 23.1841" stroke="#00599B" stroke-width="1.67" stroke-linecap="round" stroke-linejoin="round"/>
<path d="M191.853 30.4353L177.396 27.9424" stroke="#00599B" stroke-width="1.67" stroke-linecap="round" stroke-linejoin="round"/>
<path d="M183.379 36.4047L185.872 21.9475" stroke="#00599B" stroke-width="1.67" stroke-linecap="round" stroke-linejoin="round"/>
<path d="M116.543 0.0200195H97.1201V19.4432H116.543V0.0200195Z" fill="#030F4B"/>
<mask id="mask0_1737_4539" style="mask-type:luminance" maskUnits="userSpaceOnUse" x="97" y="0" width="20" height="20">
<path d="M116.545 0.0197754H97.1221V19.4429H116.545V0.0197754Z" fill="white"/>
</mask>
<g mask="url(#mask0_1737_4539)">
<path d="M87.4082 0.0198936C87.4082 2.59594 88.4315 5.06649 90.253 6.88803C92.0745 8.70957 94.5451 9.7329 97.1211 9.7329C98.3964 9.7329 99.6593 9.48165 100.838 8.99349C102.016 8.50533 103.086 7.78983 103.988 6.88786C104.89 5.98588 105.605 4.91511 106.093 3.73669C106.581 2.55827 106.831 1.29529 106.831 0.0198936C106.831 -1.2555 106.581 -2.51848 106.093 -3.6969C105.605 -4.87532 104.89 -5.9461 103.988 -6.84807C103.086 -7.75004 102.016 -8.46554 100.838 -8.9537C99.6593 -9.44186 98.3964 -9.69312 97.1211 -9.69312C94.5451 -9.69312 92.0745 -8.66978 90.253 -6.84824C88.4315 -5.0267 87.4082 -2.55616 87.4082 0.0198936Z" fill="#EE2A2E"/>
<path d="M106.828 19.6336C106.829 21.5544 107.399 23.4319 108.466 25.0288C109.534 26.6256 111.051 27.8701 112.825 28.6049C114.6 29.3397 116.553 29.5318 118.437 29.157C120.32 28.7821 122.051 27.8571 123.409 26.4989C124.767 25.1407 125.692 23.4102 126.067 21.5263C126.442 19.6425 126.25 17.6897 125.515 15.915C124.78 14.1403 123.536 12.6233 121.939 11.5558C120.342 10.4884 118.465 9.91829 116.544 9.91773C115.268 9.91698 114.004 10.1678 112.825 10.6558C111.646 11.1438 110.574 11.8594 109.672 12.7618C108.77 13.6641 108.054 14.7355 107.566 15.9146C107.078 17.0937 106.827 18.3575 106.828 19.6336Z" fill="#00599B"/>
</g>
<path d="M165.102 0.0200195H155.392V9.73303C156.667 9.73265 157.93 9.98354 159.108 10.4714C160.287 10.9592 161.358 11.6744 162.259 12.5761C163.161 13.4778 163.877 14.5483 164.365 15.7266C164.853 16.9049 165.104 18.1678 165.104 19.4432H174.814V9.73303C172.238 9.73303 169.768 8.70969 167.946 6.88815C166.125 5.06661 165.102 2.59607 165.102 0.0200195Z" fill="#FFAE2D"/>
<path d="M155.389 0.0200195H135.966V19.4432H155.389V0.0200195Z" fill="#030F4B"/>
<path d="M135.966 19.4431V9.71021L155.195 19.4431H135.966Z" fill="#EBF6FF"/>
<path d="M155.392 0.0200195V9.75293L136.162 0.0200195H155.392Z" fill="#00599B"/>
<path d="M233.038 19.3862V0.0141602L213.655 0.0141602V19.3862H233.038Z" fill="#030F4B"/>
<path d="M228.945 55.9017C228.945 55.9017 223.016 56.0154 223.371 49.4804C223.371 49.4804 229.283 48.9119 228.945 55.9017Z" fill="#FFAE2D"/>
<path d="M217.785 55.9017C217.785 55.9017 223.706 56.0182 223.359 49.4804C223.359 49.4804 217.452 48.9119 217.785 55.9017Z" fill="#FFAE2D"/>
<path d="M228.945 48.9118C228.945 48.9118 223.016 49.0255 223.371 42.4905C223.371 42.4934 229.283 41.9163 228.945 48.9118Z" fill="#FFAE2D"/>
<path d="M217.785 48.9118C217.785 48.9118 223.717 49.0255 223.359 42.4905C223.359 42.4934 217.452 41.9163 217.785 48.9118Z" fill="#FFAE2D"/>
<path d="M228.945 41.5611C228.945 41.5611 223.016 41.6748 223.371 35.1397C223.371 35.1397 229.283 34.5627 228.945 41.5611Z" fill="#FFAE2D"/>
<path d="M217.785 41.5611C217.785 41.5611 223.717 41.6748 223.359 35.1397C223.359 35.1397 217.452 34.5627 217.785 41.5611Z" fill="#FFAE2D"/>
<path d="M228.945 34.2073C228.945 34.2073 223.016 34.321 223.371 27.786C223.371 27.786 229.283 27.2089 228.945 34.2073Z" fill="#FFAE2D"/>
<path d="M217.785 34.2073C217.785 34.2073 223.717 34.321 223.359 27.786C223.359 27.786 217.452 27.2089 217.785 34.2073Z" fill="#FFAE2D"/>
<path d="M228.945 27.2202C228.945 27.2202 223.016 27.334 223.371 20.7989C223.371 20.7989 229.283 20.2219 228.945 27.2202Z" fill="#FFAE2D"/>
<path d="M217.785 27.2202C217.785 27.2202 223.717 27.334 223.359 20.7989C223.359 20.7989 217.452 20.2219 217.785 27.2202Z" fill="#FFAE2D"/>
<path d="M228.945 19.8667C228.945 19.8667 223.016 19.9804 223.371 13.4454C223.371 13.4454 229.283 12.8684 228.945 19.8667Z" fill="#FFAE2D"/>
<path d="M217.785 19.8667C217.785 19.8667 223.717 19.9804 223.359 13.4454C223.359 13.4454 217.452 12.8684 217.785 19.8667Z" fill="#FFAE2D"/>
<path d="M228.945 12.4079C228.945 12.4079 223.016 12.5273 223.371 5.98941C223.371 5.98941 229.283 5.4209 228.945 12.4079Z" fill="#FFAE2D"/>
<path d="M217.785 12.4079C217.785 12.4079 223.706 12.5273 223.359 5.98941C223.359 5.98941 217.452 5.4209 217.785 12.4079Z" fill="#FFAE2D"/>
<path d="M194.245 19.4148C194.245 14.2665 196.29 9.329 199.931 5.68858C203.571 2.04816 208.508 0.00298309 213.657 0.00298309V19.4148H194.245Z" fill="#030F4B"/>
<path d="M135.966 0H116.546V19.4203H135.966V0Z" fill="#FFAE2D"/>
<path d="M116.544 1.96997C116.544 1.96997 117.348 10.401 126.26 8.9257L116.544 1.96997Z" fill="#00599B"/>
<path d="M116.544 1.96993C116.544 1.96993 124.787 0.0199341 126.257 8.92566L116.544 1.96993Z" fill="#030F4B"/>
<path d="M135.969 1.96997C135.969 1.96997 135.167 10.401 126.256 8.9257L135.969 1.96997Z" fill="#00599B"/>
<path d="M135.969 1.96981C135.969 1.96981 127.725 0.0141294 126.256 8.92554L135.969 1.96981Z" fill="#030F4B"/>
<path d="M116.544 9.91772C116.544 9.91772 117.348 18.3487 126.26 16.8735L116.544 9.91772Z" fill="#00599B"/>
<path d="M116.544 9.91768C116.544 9.91768 124.787 7.97906 126.257 16.8734L116.544 9.91768Z" fill="#030F4B"/>
<path d="M135.969 9.91772C135.969 9.91772 135.167 18.3487 126.256 16.8735L135.969 9.91772Z" fill="#00599B"/>
<path d="M135.969 9.91774C135.969 9.91774 127.725 7.96491 126.256 16.8735L135.969 9.91774Z" fill="#030F4B"/>
<path d="M126.432 0H126.077V19.4203H126.432V0Z" fill="#030F4B"/>
<path d="M194.271 19.4518V38.8096H213.629V19.4518H194.271Z" fill="#00599B"/>
<path d="M194.245 38.8067C194.245 33.6576 196.291 28.7195 199.931 25.0785C203.572 21.4376 208.51 19.3921 213.659 19.3921C213.659 24.5412 211.614 29.4794 207.973 33.1203C204.332 36.7613 199.394 38.8067 194.245 38.8067Z" fill="#EBF6FF"/>
<path d="M116.54 30.9043L117.404 32.4848L118.988 33.3517L117.404 34.2159L116.54 35.7963L115.676 34.2159L114.093 33.3517L115.676 32.4848L116.54 30.9043Z" fill="#FFAE2D"/>
<path d="M123.843 23.5791L124.71 25.1596L126.29 26.0237L124.71 26.8878L123.843 28.4711L122.979 26.8878L121.398 26.0237L122.979 25.1596L123.843 23.5791Z" fill="#FFAE2D"/>
<path d="M174.825 38.8691V19.4431L136.099 19.4431V38.8691H174.825Z" fill="#00599B"/>
<path d="M145.552 38.7014L145.64 38.7867L155.31 29.1163L145.64 19.4431L145.589 19.4943L145.552 38.7014Z" fill="#CBCBBF"/>
<path d="M145.724 19.5312L145.639 19.4431L135.966 29.1163L145.639 38.7867L145.687 38.7384L145.724 19.5312Z" fill="#FFAE2D"/>
<path d="M170.034 38.369C170.139 39.3873 169.925 40.413 169.423 41.3052C168.922 42.1974 168.156 42.9123 167.231 43.3518C166.307 43.7914 165.269 43.9339 164.26 43.7599C163.251 43.5859 162.321 43.1039 161.597 42.3801C160.874 41.6562 160.392 40.7261 160.218 39.7173C160.044 38.7085 160.186 37.6706 160.626 36.7461C161.065 35.8216 161.78 35.0558 162.672 34.5539C163.565 34.0521 164.59 33.8387 165.609 33.9431C166.742 34.0599 167.802 34.5637 168.608 35.3698C169.414 36.1759 169.918 37.235 170.034 38.369Z" fill="#FFAE2D"/>
<path d="M194.182 0.0200195H174.816V19.3863H194.182V0.0200195Z" fill="#CBCBBF"/>
<path d="M189.459 9.4457C189.564 10.4647 189.35 11.4911 188.848 12.3838C188.346 13.2765 187.579 13.9917 186.654 14.431C185.729 14.8704 184.69 15.0123 183.681 14.8373C182.671 14.6623 181.741 14.1789 181.018 13.4537C180.294 12.7284 179.813 11.7969 179.641 10.7872C179.469 9.77749 179.613 8.73916 180.055 7.81496C180.497 6.89077 181.214 6.1261 182.108 5.6261C183.002 5.12609 184.029 4.91529 185.047 5.02269C186.178 5.14246 187.234 5.64723 188.037 6.45245C188.84 7.25767 189.342 8.31443 189.459 9.4457Z" fill="#EE2A2E"/>
<path d="M194.24 38.8718H174.82V58.2922H194.24V38.8718Z" fill="#00599B"/>
<path d="M174.816 40.8418C174.816 40.8418 175.621 49.27 184.532 47.7975L174.816 40.8418Z" fill="#FFAE2D"/>
<path d="M174.816 40.8419C174.816 40.8419 183.06 38.8862 184.532 47.7976L174.816 40.8419Z" fill="#030F4B"/>
<path d="M194.243 40.8418C194.243 40.8418 193.442 49.27 184.53 47.7975L194.243 40.8418Z" fill="#FFAE2D"/>
<path d="M194.243 40.8419C194.243 40.8419 186 38.8862 184.53 47.7976L194.243 40.8419Z" fill="#030F4B"/>
<path d="M174.816 48.7896C174.816 48.7896 175.621 57.2206 184.532 55.7453L174.816 48.7896Z" fill="#FFAE2D"/>
<path d="M174.816 48.7896C174.816 48.7896 183.06 46.834 184.532 55.7454L174.816 48.7896Z" fill="#030F4B"/>
<path d="M194.243 48.7896C194.243 48.7896 193.442 57.2206 184.53 55.7453L194.243 48.7896Z" fill="#FFAE2D"/>
<path d="M194.243 48.7896C194.243 48.7896 186 46.834 184.53 55.7454L194.243 48.7896Z" fill="#030F4B"/>
<path d="M184.994 38.8721H184.064V58.2924H184.994V38.8721Z" fill="#030F4B"/>
<path d="M194.245 38.8748C199.393 38.8748 204.331 40.9199 207.971 44.5603C211.611 48.2008 213.657 53.1382 213.657 58.2866H194.245V38.8748Z" fill="#030F4B"/>
<mask id="mask1_1737_4539" style="mask-type:luminance" maskUnits="userSpaceOnUse" x="194" y="58" width="39" height="20">
<path d="M232.623 58.5168H194.237V77.4284H232.623V58.5168Z" fill="white"/>
</mask>
<g mask="url(#mask1_1737_4539)">
<path d="M228.684 81.1812C230.693 72.8758 225.589 64.5141 217.284 62.5048C208.979 60.4956 200.617 65.5995 198.608 73.9049C196.599 82.2103 201.702 90.572 210.008 92.5812C218.313 94.5905 226.674 89.4865 228.684 81.1812Z" fill="#FFF9DF"/>
<path d="M213.757 91.9823V62.8745" stroke="#FFAE2D" stroke-width="1.43" stroke-linecap="round" stroke-linejoin="round"/>
<path d="M203.46 87.7211L224.043 67.1382" stroke="#FFAE2D" stroke-width="1.43" stroke-linecap="round" stroke-linejoin="round"/>
<path d="M203.46 67.1382L224.043 87.7211" stroke="#FFAE2D" stroke-width="1.43" stroke-linecap="round" stroke-linejoin="round"/>
<path d="M200.152 82.613L227.352 72.2434" stroke="#FFAE2D" stroke-width="1.43" stroke-linecap="round" stroke-linejoin="round"/>
<path d="M208.568 63.8296L218.935 91.03" stroke="#FFAE2D" stroke-width="1.43" stroke-linecap="round" stroke-linejoin="round"/>
<path d="M200.472 71.4761L227.035 83.3807" stroke="#FFAE2D" stroke-width="1.43" stroke-linecap="round" stroke-linejoin="round"/>
<path d="M219.703 64.145C219.703 64.145 208.049 90.1629 207.802 90.7115" stroke="#FFAE2D" stroke-width="1.43" stroke-linecap="round" stroke-linejoin="round"/>
<path d="M213.663 89.1994C220.095 89.1994 225.309 83.9853 225.309 77.5534C225.309 71.1215 220.095 65.9075 213.663 65.9075C207.232 65.9075 202.018 71.1215 202.018 77.5534C202.018 83.9853 207.232 89.1994 213.663 89.1994Z" fill="#FFAE2D"/>
<path d="M208.995 72.0019C208.995 72.1706 208.945 72.3355 208.851 72.4757C208.757 72.6159 208.624 72.7252 208.468 72.7898C208.312 72.8543 208.141 72.8712 207.975 72.8383C207.81 72.8054 207.658 72.7242 207.539 72.6049C207.42 72.4857 207.338 72.3337 207.305 72.1683C207.273 72.0029 207.289 71.8314 207.354 71.6756C207.419 71.5198 207.528 71.3866 207.668 71.2929C207.808 71.1992 207.973 71.1492 208.142 71.1492C208.368 71.1492 208.585 71.239 208.745 71.3989C208.905 71.5589 208.995 71.7758 208.995 72.0019Z" fill="#00599B"/>
<path d="M212.854 72.0019C212.854 72.1706 212.804 72.3355 212.71 72.4757C212.617 72.6159 212.483 72.7252 212.328 72.7898C212.172 72.8543 212 72.8712 211.835 72.8383C211.669 72.8054 211.517 72.7242 211.398 72.6049C211.279 72.4857 211.198 72.3337 211.165 72.1683C211.132 72.0029 211.149 71.8314 211.213 71.6756C211.278 71.5198 211.387 71.3866 211.527 71.2929C211.668 71.1992 211.833 71.1492 212.001 71.1492C212.227 71.1492 212.444 71.239 212.604 71.3989C212.764 71.5589 212.854 71.7758 212.854 72.0019Z" fill="#00599B"/>
<path d="M216.717 72.0019C216.717 72.1706 216.667 72.3355 216.574 72.4757C216.48 72.6159 216.347 72.7252 216.191 72.7898C216.035 72.8543 215.864 72.8712 215.698 72.8383C215.533 72.8054 215.381 72.7242 215.261 72.6049C215.142 72.4857 215.061 72.3337 215.028 72.1683C214.995 72.0029 215.012 71.8314 215.077 71.6756C215.141 71.5198 215.25 71.3866 215.391 71.2929C215.531 71.1992 215.696 71.1492 215.864 71.1492C216.091 71.1492 216.308 71.239 216.467 71.3989C216.627 71.5589 216.717 71.7758 216.717 72.0019Z" fill="#00599B"/>
<path d="M220.579 72.0019C220.579 72.1706 220.529 72.3355 220.435 72.4757C220.341 72.6159 220.208 72.7252 220.052 72.7898C219.896 72.8543 219.725 72.8712 219.559 72.8383C219.394 72.8054 219.242 72.7242 219.123 72.6049C219.004 72.4857 218.922 72.3337 218.889 72.1683C218.857 72.0029 218.873 71.8314 218.938 71.6756C219.003 71.5198 219.112 71.3866 219.252 71.2929C219.392 71.1992 219.557 71.1492 219.726 71.1492C219.952 71.1492 220.169 71.239 220.329 71.3989C220.489 71.5589 220.579 71.7758 220.579 72.0019Z" fill="#00599B"/>
<path d="M208.947 75.8166C208.947 75.9853 208.897 76.1502 208.803 76.2904C208.709 76.4306 208.576 76.5399 208.42 76.6045C208.264 76.669 208.093 76.6859 207.928 76.653C207.762 76.6201 207.61 76.5389 207.491 76.4196C207.372 76.3004 207.291 76.1484 207.258 75.983C207.225 75.8176 207.242 75.6461 207.306 75.4903C207.371 75.3345 207.48 75.2013 207.62 75.1076C207.76 75.0139 207.925 74.9639 208.094 74.9639C208.32 74.9639 208.537 75.0537 208.697 75.2136C208.857 75.3736 208.947 75.5905 208.947 75.8166Z" fill="#00599B"/>
<path d="M212.81 75.8166C212.81 75.9853 212.76 76.1502 212.666 76.2904C212.573 76.4306 212.439 76.5399 212.284 76.6045C212.128 76.669 211.956 76.6859 211.791 76.653C211.625 76.6201 211.474 76.5389 211.354 76.4196C211.235 76.3004 211.154 76.1484 211.121 75.983C211.088 75.8176 211.105 75.6461 211.169 75.4903C211.234 75.3345 211.343 75.2013 211.483 75.1076C211.624 75.0139 211.789 74.9639 211.957 74.9639C212.183 74.9639 212.4 75.0537 212.56 75.2136C212.72 75.3736 212.81 75.5905 212.81 75.8166Z" fill="#00599B"/>
<path d="M216.672 75.8166C216.672 75.9853 216.622 76.1502 216.529 76.2904C216.435 76.4306 216.302 76.5399 216.146 76.6045C215.99 76.669 215.819 76.6859 215.653 76.653C215.488 76.6201 215.336 76.5389 215.217 76.4196C215.097 76.3004 215.016 76.1484 214.983 75.983C214.95 75.8176 214.967 75.6461 215.032 75.4903C215.096 75.3345 215.206 75.2013 215.346 75.1076C215.486 75.0139 215.651 74.9639 215.82 74.9639C216.046 74.9639 216.263 75.0537 216.423 75.2136C216.582 75.3736 216.672 75.5905 216.672 75.8166Z" fill="#00599B"/>
<path d="M220.533 75.8166C220.533 75.9853 220.483 76.1502 220.389 76.2904C220.295 76.4306 220.162 76.5399 220.006 76.6045C219.85 76.669 219.679 76.6859 219.514 76.653C219.348 76.6201 219.196 76.5389 219.077 76.4196C218.958 76.3004 218.876 76.1484 218.844 75.983C218.811 75.8176 218.828 75.6461 218.892 75.4903C218.957 75.3345 219.066 75.2013 219.206 75.1076C219.346 75.0139 219.511 74.9639 219.68 74.9639C219.906 74.9639 220.123 75.0537 220.283 75.2136C220.443 75.3736 220.533 75.5905 220.533 75.8166Z" fill="#00599B"/>
</g>
<path d="M201.025 52.3542L202.102 54.3241L204.072 55.4043L202.102 56.4816L201.025 58.4515L199.944 56.4816L197.975 55.4043L199.944 54.3241L201.025 52.3542Z" fill="#FFF9DF"/>
<path d="M205.815 48.9146L206.474 50.1226L207.682 50.7821L206.474 51.4416L205.815 52.6468L205.155 51.4416L203.95 50.7821L205.155 50.1226L205.815 48.9146Z" fill="#FFF9DF"/>
<mask id="mask2_1737_4539" style="mask-type:luminance" maskUnits="userSpaceOnUse" x="0" y="45" width="233" height="44">
<path d="M232.62 45.7852H0V88.7077H232.62V45.7852Z" fill="white"/>
</mask>
<g mask="url(#mask2_1737_4539)">
<path d="M194.348 77.4485H155.454V96.8461H194.348V77.4485Z" fill="#00599B"/>
<path d="M213.662 96.7437C213.662 91.5953 215.707 86.6579 219.348 83.0174C222.988 79.377 227.925 77.3318 233.074 77.3318V96.7437H213.662Z" fill="#EE2A2E"/>
<path d="M174.868 96.8603C172.319 96.8607 169.795 96.3588 167.439 95.3835C165.084 94.4081 162.943 92.9783 161.141 91.1757C159.338 89.3731 157.908 87.233 156.932 84.8777C155.956 82.5224 155.454 79.9979 155.454 77.4485C158.003 77.4481 160.528 77.9499 162.883 78.9253C165.239 79.9007 167.379 81.3305 169.182 83.1331C170.985 84.9357 172.415 87.0757 173.391 89.4311C174.366 91.7864 174.868 94.3109 174.868 96.8603Z" fill="#FFAE2D"/>
<path d="M174.951 96.8431C174.951 91.694 176.997 86.7558 180.638 83.1149C184.278 79.4739 189.217 77.4285 194.366 77.4285C194.366 82.5776 192.32 87.5157 188.679 91.1567C185.038 94.7976 180.1 96.8431 174.951 96.8431Z" fill="#FFAE2D"/>
</g>
</svg>
