<svg width="14" height="15" viewBox="0 0 14 15" fill="none" xmlns="http://www.w3.org/2000/svg">
<path fill-rule="evenodd" clip-rule="evenodd" d="M8.58309 4.80871C8.35325 4.80871 8.16659 4.57969 8.16659 4.29778V2.39112L10.3494 4.80871H8.58309ZM8.16658 9.01636H7.58325V9.61745C7.58325 9.94925 7.3225 10.2185 6.99992 10.2185C6.67734 10.2185 6.41658 9.94925 6.41658 9.61745V9.01636H5.83325C5.51067 9.01636 5.24992 8.74707 5.24992 8.41526C5.24992 8.08346 5.51067 7.81417 5.83325 7.81417H6.41658V7.21308C6.41658 6.88127 6.67734 6.61199 6.99992 6.61199C7.3225 6.61199 7.58325 6.88127 7.58325 7.21308V7.81417H8.16658C8.48917 7.81417 8.74992 8.08346 8.74992 8.41526C8.74992 8.74707 8.48917 9.01636 8.16658 9.01636ZM11.5149 4.40477L8.92258 1.39931C8.81233 1.27368 8.65542 1.20215 8.49092 1.20215H3.82425C3.00234 1.20215 2.33325 1.87657 2.33325 2.70488V11.7213C2.33325 12.5496 3.00234 13.224 3.82425 13.224H10.1756C10.9981 13.224 11.6666 12.5496 11.6666 11.7213V4.80871C11.6666 4.65903 11.6123 4.51537 11.5149 4.40477Z" fill="#231F20"/>
<mask id="mask0_1901_6214" style="mask-type:luminance" maskUnits="userSpaceOnUse" x="2" y="1" width="10" height="13">
<path fill-rule="evenodd" clip-rule="evenodd" d="M8.58309 4.80871C8.35325 4.80871 8.16659 4.57969 8.16659 4.29778V2.39112L10.3494 4.80871H8.58309ZM8.16658 9.01636H7.58325V9.61745C7.58325 9.94925 7.3225 10.2185 6.99992 10.2185C6.67734 10.2185 6.41658 9.94925 6.41658 9.61745V9.01636H5.83325C5.51067 9.01636 5.24992 8.74707 5.24992 8.41526C5.24992 8.08346 5.51067 7.81417 5.83325 7.81417H6.41658V7.21308C6.41658 6.88127 6.67734 6.61199 6.99992 6.61199C7.3225 6.61199 7.58325 6.88127 7.58325 7.21308V7.81417H8.16658C8.48917 7.81417 8.74992 8.08346 8.74992 8.41526C8.74992 8.74707 8.48917 9.01636 8.16658 9.01636ZM11.5149 4.40477L8.92258 1.39931C8.81233 1.27368 8.65542 1.20215 8.49092 1.20215H3.82425C3.00234 1.20215 2.33325 1.87657 2.33325 2.70488V11.7213C2.33325 12.5496 3.00234 13.224 3.82425 13.224H10.1756C10.9981 13.224 11.6666 12.5496 11.6666 11.7213V4.80871C11.6666 4.65903 11.6123 4.51537 11.5149 4.40477Z" fill="white"/>
</mask>
<g mask="url(#mask0_1901_6214)">
<rect width="14" height="14.4262" fill="white"/>
</g>
</svg>
