<svg width="508" height="462" viewBox="0 0 508 462" fill="none" xmlns="http://www.w3.org/2000/svg">
<g clip-path="url(#clip0_373_3685)">
<path d="M581.566 403.12H-73.4729V403.445H581.566V403.12Z" fill="#EBEBEB"/>
<path d="M515.931 424.037H487.529V424.362H515.931V424.037Z" fill="#EBEBEB"/>
<path d="M378.072 417.303H333.385V417.628H378.072V417.303Z" fill="#EBEBEB"/>
<path d="M504.429 411.973H446.091V412.298H504.429V411.973Z" fill="#EBEBEB"/>
<path d="M153.197 418.525H138.602V418.85H153.197V418.525Z" fill="#EBEBEB"/>
<path d="M126.93 418.525H76.6357V418.85H126.93V418.525Z" fill="#EBEBEB"/>
<path d="M49.6875 413.039H13.3983V413.364H49.6875V413.039Z" fill="#EBEBEB"/>
<path d="M237.016 345.14H-15.9474C-17.929 345.137 -19.8284 344.353 -21.2284 342.961C-22.6285 341.57 -23.4148 339.683 -23.4148 337.717V-15.142C-23.3975 -17.0972 -22.6036 -18.9666 -21.2054 -20.3443C-19.8072 -21.722 -17.9177 -22.4967 -15.9474 -22.5H237.016C238.999 -22.5 240.902 -21.7179 242.305 -20.3259C243.708 -18.9338 244.496 -17.0457 244.496 -15.077V337.717C244.496 339.686 243.708 341.574 242.305 342.966C240.902 344.358 238.999 345.14 237.016 345.14ZM-15.9474 -22.24C-17.8422 -22.2366 -19.6582 -21.4872 -20.9968 -20.1565C-22.3355 -18.8257 -23.0873 -17.0223 -23.0873 -15.142V337.717C-23.0873 339.597 -22.3355 341.401 -20.9968 342.731C-19.6582 344.062 -17.8422 344.812 -15.9474 344.815H237.016C238.912 344.812 240.729 344.063 242.07 342.732C243.41 341.402 244.165 339.598 244.169 337.717V-15.142C244.165 -17.0235 243.41 -18.8269 242.07 -20.1572C240.729 -21.4876 238.912 -22.2366 237.016 -22.24H-15.9474Z" fill="#EBEBEB"/>
<path d="M520.398 345.14H267.422C265.439 345.137 263.539 344.353 262.137 342.962C260.734 341.571 259.945 339.685 259.942 337.717V-15.142C259.962 -17.0984 260.759 -18.9678 262.16 -20.3451C263.56 -21.7225 265.451 -22.4967 267.422 -22.5H520.398C522.366 -22.4932 524.253 -21.7171 525.648 -20.3398C527.043 -18.9624 527.835 -17.0949 527.853 -15.142V337.717C527.853 339.681 527.068 341.565 525.671 342.957C524.274 344.348 522.378 345.133 520.398 345.14ZM267.422 -22.24C265.526 -22.2366 263.709 -21.4876 262.368 -20.1572C261.027 -18.8269 260.273 -17.0235 260.269 -15.142V337.717C260.273 339.598 261.027 341.402 262.368 342.732C263.709 344.063 265.526 344.812 267.422 344.815H520.398C522.294 344.812 524.112 344.063 525.452 342.732C526.793 341.402 527.548 339.598 527.551 337.717V-15.142C527.548 -17.0235 526.793 -18.8269 525.452 -20.1572C524.112 -21.4876 522.294 -22.2366 520.398 -22.24H267.422Z" fill="#EBEBEB"/>
<path d="M77.186 133.019C84.4513 133.019 91.419 130.155 96.5563 125.057C101.694 119.96 104.58 113.045 104.58 105.836C104.58 98.6267 101.694 91.7126 96.5563 86.6148C91.419 81.517 84.4513 78.6531 77.186 78.6531H73.8191V133.019H77.186Z" fill="#E0E0E0"/>
<path d="M73.7929 133.019C88.922 133.019 101.187 120.849 101.187 105.836C101.187 90.8233 88.922 78.6531 73.7929 78.6531C58.6638 78.6531 46.3992 90.8233 46.3992 105.836C46.3992 120.849 58.6638 133.019 73.7929 133.019Z" fill="#F5F5F5"/>
<path d="M72.5352 109.242C62.8065 109.242 53.4762 105.407 46.597 98.5806C39.7177 91.7543 35.853 82.4958 35.853 72.8419V51.1189C35.853 50.2122 36.216 49.3425 36.8622 48.7014C37.5083 48.0602 38.3847 47.7 39.2985 47.7C40.2123 47.7 41.0887 48.0602 41.7349 48.7014C42.381 49.3425 42.744 50.2122 42.744 51.1189V72.855C42.751 80.6909 45.8901 88.2042 51.4727 93.7463C57.0553 99.2883 64.6254 102.407 72.5221 102.417C72.9916 102.388 73.462 102.455 73.9044 102.614C74.3468 102.772 74.7518 103.019 75.0945 103.338C75.4372 103.658 75.7103 104.044 75.897 104.473C76.0837 104.901 76.18 105.363 76.18 105.829C76.18 106.296 76.0837 106.758 75.897 107.186C75.7103 107.615 75.4372 108.001 75.0945 108.32C74.7518 108.64 74.3468 108.887 73.9044 109.045C73.462 109.204 72.9916 109.271 72.5221 109.242H72.5352Z" fill="#E0E0E0"/>
<path d="M8.83926 70.2549H69.7841C70.7587 70.2551 71.7204 70.0332 72.595 69.6064C73.4697 69.1796 74.2338 68.5592 74.8287 67.7931C75.4236 67.0269 75.8333 66.1355 76.0262 65.1875C76.2191 64.2394 76.1901 63.2601 75.9414 62.325L70.6356 42.4999C70.2775 41.1532 69.4809 39.9616 68.3697 39.1105C67.2585 38.2594 65.895 37.7966 64.4913 37.7939H14.132C12.7266 37.7959 11.3612 38.2583 10.2478 39.1092C9.13443 39.9602 8.33532 41.1521 7.9746 42.4999L2.73429 62.299C2.47924 63.2317 2.4437 64.2102 2.63044 65.1588C2.81717 66.1074 3.22118 67.0007 3.81124 67.7696C4.4013 68.5386 5.16161 69.1627 6.03344 69.5936C6.90527 70.0245 7.86527 70.2508 8.83926 70.2549Z" fill="#F5F5F5"/>
<path d="M464.026 133.019C471.291 133.019 478.259 130.155 483.396 125.057C488.533 119.96 491.419 113.045 491.419 105.836C491.419 98.6267 488.533 91.7126 483.396 86.6148C478.259 81.517 471.291 78.6531 464.026 78.6531H460.659V133.019H464.026Z" fill="#E0E0E0"/>
<path d="M460.659 133.019C475.788 133.019 488.053 120.849 488.053 105.836C488.053 90.8233 475.788 78.6531 460.659 78.6531C445.53 78.6531 433.265 90.8233 433.265 105.836C433.265 120.849 445.53 133.019 460.659 133.019Z" fill="#F5F5F5"/>
<path d="M459.401 109.242C449.672 109.242 440.342 105.407 433.463 98.5806C426.584 91.7543 422.719 82.4958 422.719 72.8419V51.1189C422.719 50.2122 423.082 49.3425 423.728 48.7014C424.374 48.0602 425.251 47.7 426.165 47.7C427.078 47.7 427.955 48.0602 428.601 48.7014C429.247 49.3425 429.61 50.2122 429.61 51.1189V72.855C429.617 80.6909 432.756 88.2042 438.339 93.7463C443.921 99.2883 451.491 102.407 459.388 102.417C459.858 102.388 460.328 102.455 460.77 102.614C461.213 102.772 461.618 103.019 461.96 103.338C462.303 103.658 462.576 104.044 462.763 104.473C462.95 104.901 463.046 105.363 463.046 105.829C463.046 106.296 462.95 106.758 462.763 107.186C462.576 107.615 462.303 108.001 461.96 108.32C461.618 108.64 461.213 108.887 460.77 109.045C460.328 109.204 459.858 109.271 459.388 109.242H459.401Z" fill="#E0E0E0"/>
<path d="M395.705 70.2551H456.65C457.625 70.2552 458.586 70.0334 459.461 69.6065C460.336 69.1797 461.1 68.5593 461.695 67.7932C462.29 67.0271 462.699 66.1356 462.892 65.1876C463.085 64.2395 463.056 63.2602 462.807 62.3251L457.567 42.5261C457.209 41.1793 456.412 39.9877 455.301 39.1366C454.19 38.2855 452.826 37.8227 451.423 37.8201H400.998C399.593 37.822 398.227 38.2844 397.114 39.1353C396 39.9863 395.201 41.1782 394.84 42.5261L389.6 62.3251C389.35 63.2562 389.318 64.2318 389.507 65.177C389.696 66.1222 390.101 67.0119 390.69 67.7777C391.28 68.5435 392.038 69.1649 392.908 69.5944C393.777 70.0239 394.734 70.2499 395.705 70.2551Z" fill="#F5F5F5"/>
<path d="M102.051 316.618H121.978L121.978 240.009H102.051L102.051 316.618Z" fill="#E6E6E6"/>
<path d="M48.0369 316.605H114.156L124.139 226.944H58.0197L48.0369 316.605Z" fill="#F0F0F0"/>
<path d="M40.8706 316.605H109.178L119.161 226.944H50.8665L40.8706 316.605Z" fill="#F5F5F5"/>
<path d="M104.239 309.546L112.65 234.016H55.7924L47.3817 309.546H104.239Z" fill="white"/>
<path d="M92.5008 291.229L92.9069 288.2C95.0162 269.246 83.0945 252.359 67.6094 252.359L67.2556 255.44C65.1464 274.381 77.0681 291.268 92.5663 291.268L92.5008 291.229Z" fill="#F5F5F5"/>
<path d="M3.9396 403.12H62.6835L62.6835 316.605H3.9396L3.9396 403.12Z" fill="#E6E6E6"/>
<path d="M9.83496 403.12H3.92651V386.441H16.0316L9.83496 403.12Z" fill="#F0F0F0"/>
<path d="M168.577 403.12H227.321V316.605H168.577V403.12Z" fill="#E6E6E6"/>
<path d="M3.92644 392.889H173.726V316.618H3.92644V392.889Z" fill="#F0F0F0"/>
<path d="M167.817 403.12H173.726V386.441H161.62L167.817 403.12Z" fill="#F0F0F0"/>
<path d="M8.51176 352.16H169.14V321.376H8.51176V352.16Z" fill="#E6E6E6"/>
<path d="M78.1162 341.5H99.536C104.141 341.502 108.699 340.571 112.929 338.765C117.159 336.959 120.974 334.316 124.139 330.996H53.5129C56.6796 334.314 60.4945 336.956 64.7245 338.762C68.9546 340.568 73.5112 341.5 78.1162 341.5Z" fill="#F0F0F0"/>
<path d="M8.51176 387.91H169.14V357.126H8.51176V387.91Z" fill="#E6E6E6"/>
<path d="M78.1162 377.198H99.536C104.141 377.2 108.699 376.269 112.929 374.463C117.159 372.657 120.974 370.014 124.139 366.694H53.5129C56.6796 370.012 60.4945 372.654 64.7245 374.46C68.9546 376.266 73.5112 377.198 78.1162 377.198Z" fill="#F0F0F0"/>
<path d="M162.97 313.082H164.49C164.49 309.975 164.49 302.11 164.647 284.079C164.922 251.384 165.446 249.395 165.446 249.395L161.83 264.488C159.537 281.193 162.498 297.989 162.97 313.082Z" fill="#E6E6E6"/>
<path d="M159.97 262.2C154.73 256.051 143.659 254.257 132.288 252.723C127.821 252.125 144.013 262.252 151.939 269.441C158.096 275.031 162.027 276.578 163.73 282.142C164.594 275.2 164.45 267.543 159.97 262.2Z" fill="#E6E6E6"/>
<path d="M166.874 273.224C172.114 267.075 183.184 265.294 194.556 263.76C199.023 263.162 182.765 273.289 174.905 280.478C168.747 286.068 164.817 287.615 163.114 293.179C162.249 286.237 162.341 278.528 166.874 273.224Z" fill="#E6E6E6"/>
<path d="M164.647 247.9C168.577 240.542 178.35 233.6 189.368 231C193.691 229.973 179.346 244.572 173.896 253.997C169.664 261.303 164.057 269.909 163.179 276.097C161.869 263.903 160.743 255.297 164.647 247.9Z" fill="#E6E6E6"/>
<path d="M164.175 316.605C159.537 316.605 155.699 314.304 155.424 311.34L154.651 306.296H173.712L172.926 311.34C172.664 314.304 168.891 316.605 164.175 316.605Z" fill="#F0F0F0"/>
<path d="M174.944 308.233H153.419L152.804 302.604H175.56L174.944 308.233Z" fill="#F0F0F0"/>
<path d="M148.638 200.736L358.525 200.736V10.7671L148.638 10.7671L148.638 200.736Z" fill="#E6E6E6"/>
<path d="M143.921 200.736L356.468 200.736V10.7671L143.921 10.7671L143.921 200.736Z" fill="#F5F5F5"/>
<path d="M347.979 192.234V19.282L152.384 19.282V192.234H347.979Z" fill="#FAFAFA"/>
<path d="M323.992 192.234L247.011 19.282H220.862L297.842 192.234H323.992Z" fill="white"/>
<path d="M290.427 192.234L213.447 19.282H195.447L272.427 192.234H290.427Z" fill="white"/>
<path d="M225.015 192.221V19.269H214.901V192.221H225.015Z" fill="#E6E6E6"/>
<path d="M292.248 192.221V19.269H282.134V192.221H292.248Z" fill="#E6E6E6"/>
<path d="M223.194 197.629V12.9509H210.408V197.629H223.194Z" fill="#F5F5F5"/>
<path d="M290.427 197.629V12.9509H277.641V197.629H290.427Z" fill="#F5F5F5"/>
<path d="M153.302 192.234V19.282H152.398V192.234H153.302Z" fill="#E6E6E6"/>
<path d="M140.358 -0.178955H367.735C368.026 -0.17558 368.304 -0.0594459 368.509 0.144617C368.715 0.348679 368.832 0.624482 368.835 0.91305C368.832 1.20041 368.715 1.47484 368.509 1.67682C368.303 1.87881 368.025 1.99206 367.735 1.99204H140.358C140.068 1.99206 139.79 1.87881 139.584 1.67682C139.378 1.47484 139.261 1.20041 139.257 0.91305C139.261 0.624482 139.378 0.348679 139.584 0.144617C139.789 -0.0594459 140.067 -0.17558 140.358 -0.178955Z" fill="#E6E6E6"/>
<path d="M358.525 6.9839C358.916 6.98047 359.289 6.82419 359.564 6.54907C359.838 6.27395 359.992 5.90227 359.992 5.51491V2.3689C359.994 2.1766 359.958 1.98588 359.885 1.80773C359.812 1.62957 359.704 1.46752 359.567 1.33094C359.431 1.19436 359.269 1.08595 359.09 1.01197C358.911 0.937986 358.719 0.899895 358.525 0.899902C358.135 0.899887 357.76 1.05287 357.483 1.32555C357.206 1.59824 357.048 1.96856 357.045 2.35591V5.5019C357.045 5.89271 357.2 6.26771 357.478 6.54527C357.755 6.82283 358.131 6.98047 358.525 6.9839Z" fill="#E6E6E6"/>
<path d="M156.839 6.9839C157.23 6.98051 157.605 6.82465 157.882 6.54989C158.159 6.27513 158.316 5.90346 158.319 5.51491V2.3689C158.319 1.9793 158.163 1.60566 157.885 1.33016C157.608 1.05467 157.231 0.899902 156.839 0.899902C156.45 0.899902 156.076 1.0533 155.801 1.32636C155.526 1.59941 155.371 1.96975 155.371 2.35591V5.5019C155.37 5.69482 155.406 5.88618 155.479 6.06506C155.552 6.24394 155.659 6.40685 155.796 6.54447C155.932 6.68208 156.094 6.79173 156.273 6.86713C156.452 6.94252 156.644 6.9822 156.839 6.9839Z" fill="#E6E6E6"/>
<path opacity="0.6" d="M140.699 149.672L353.101 149.672V0.899887L140.699 0.899887L140.699 149.672Z" fill="#E0E0E0"/>
<path d="M372.333 243.961H335.704C331.811 243.961 328.655 247.092 328.655 250.955V267.777C328.655 271.64 331.811 274.771 335.704 274.771H372.333C376.226 274.771 379.382 271.64 379.382 267.777V250.955C379.382 247.092 376.226 243.961 372.333 243.961Z" fill="#FAFAFA"/>
<path d="M377.01 238.267H331.027C329.717 238.267 328.655 239.321 328.655 240.62V242.518C328.655 243.818 329.717 244.871 331.027 244.871H377.01C378.32 244.871 379.382 243.818 379.382 242.518V240.62C379.382 239.321 378.32 238.267 377.01 238.267Z" fill="#E6E6E6"/>
<path d="M329.402 309C329.402 309 330.07 330.671 355.512 330.671C380.954 330.671 381.622 309 381.622 309H329.402Z" fill="#F0F0F0"/>
<path d="M387.412 309C387.412 309 388.081 330.671 413.522 330.671C438.964 330.671 439.632 309 439.632 309H387.412Z" fill="#F0F0F0"/>
<path d="M427.029 230.012H376.722C371.368 230.012 367.028 234.319 367.028 239.632V265.164C367.028 270.477 371.368 274.784 376.722 274.784H427.029C432.383 274.784 436.724 270.477 436.724 265.164V239.632C436.724 234.319 432.383 230.012 427.029 230.012Z" fill="#F0F0F0"/>
<path d="M433.475 222.186H370.277C368.482 222.186 367.028 223.629 367.028 225.41V228.036C367.028 229.817 368.482 231.26 370.277 231.26H433.475C435.269 231.26 436.724 229.817 436.724 228.036V225.41C436.724 223.629 435.269 222.186 433.475 222.186Z" fill="#F5F5F5"/>
<path d="M310.236 403.12H316.839V295.688H310.236V403.12Z" fill="#E6E6E6"/>
<path d="M500.891 274.771H465.139V295.675H500.891V274.771Z" fill="#E6E6E6"/>
<path d="M287.375 295.688H465.126V274.784H287.375V295.688Z" fill="#F5F5F5"/>
<path d="M500.891 330.606H465.139V351.51H500.891V330.606Z" fill="#E6E6E6"/>
<path d="M287.375 351.51H465.126V330.606H287.375V351.51Z" fill="#F5F5F5"/>
<path d="M487.987 403.12H494.59V295.688H487.987V403.12Z" fill="#E6E6E6"/>
<path d="M458.536 403.12H465.139V295.688H458.536V403.12Z" fill="#F5F5F5"/>
<path d="M287.375 403.12H293.978V295.688H287.375V403.12Z" fill="#F5F5F5"/>
<path d="M254.046 461.828C394.333 461.828 508.057 455.239 508.057 447.112C508.057 438.985 394.333 432.396 254.046 432.396C113.76 432.396 0.0355225 438.985 0.0355225 447.112C0.0355225 455.239 113.76 461.828 254.046 461.828Z" fill="#F5F5F5"/>
<path d="M267.684 381.15H100.558C97.8703 381.112 95.2966 380.067 93.3528 378.225C91.409 376.383 90.239 373.88 90.0772 371.218L75.09 83.2029C75.0069 81.9217 75.1914 80.6374 75.6319 79.4304C76.0724 78.2233 76.7594 77.1196 77.6499 76.1883C78.5404 75.2571 79.6152 74.5184 80.8068 74.0186C81.9984 73.5188 83.2813 73.2687 84.5749 73.2839H251.702C254.388 73.3184 256.961 74.3603 258.906 76.2002C260.85 78.0401 262.02 80.5418 262.182 83.2029L277.143 371.218C277.226 372.497 277.042 373.78 276.604 374.986C276.165 376.192 275.48 377.295 274.593 378.227C273.705 379.159 272.634 379.899 271.445 380.402C270.257 380.905 268.976 381.16 267.684 381.15Z" fill="#407BFF"/>
<path opacity="0.8" d="M267.684 381.15H100.558C97.8703 381.112 95.2966 380.067 93.3528 378.225C91.409 376.383 90.239 373.88 90.0772 371.218L75.09 83.2029C75.0069 81.9217 75.1914 80.6374 75.6319 79.4304C76.0724 78.2233 76.7594 77.1196 77.6499 76.1883C78.5404 75.2571 79.6152 74.5184 80.8068 74.0186C81.9984 73.5188 83.2813 73.2687 84.5749 73.2839H251.702C254.388 73.3184 256.961 74.3603 258.906 76.2002C260.85 78.0401 262.02 80.5418 262.182 83.2029L277.143 371.218C277.226 372.497 277.042 373.78 276.604 374.986C276.165 376.192 275.48 377.295 274.593 378.227C273.705 379.159 272.634 379.899 271.445 380.402C270.257 380.905 268.976 381.16 267.684 381.15Z" fill="white"/>
<path d="M235.208 63.8979H216.722V65.1979H235.208V63.8979Z" fill="#407BFF"/>
<path d="M210.316 63.8979H203.543V65.1979H210.316V63.8979Z" fill="#407BFF"/>
<path d="M274.877 362.872H115.047C112.474 362.847 110.005 361.856 108.138 360.098C106.271 358.339 105.145 355.944 104.986 353.395L90.6799 77.925C90.6004 76.699 90.7771 75.4698 91.1988 74.3147C91.6205 73.1596 92.2782 72.1034 93.1306 71.2124C93.983 70.3214 95.0118 69.6147 96.1524 69.1368C97.2929 68.6589 98.5207 68.4199 99.7588 68.435H259.588C262.162 68.4632 264.629 69.4578 266.494 71.2186C268.358 72.9794 269.481 75.3756 269.637 77.925L283.943 353.395C284.022 354.619 283.846 355.847 283.425 357C283.004 358.154 282.347 359.209 281.496 360.098C280.645 360.988 279.617 361.694 278.478 362.171C277.339 362.648 276.113 362.887 274.877 362.872Z" fill="#407BFF"/>
<path d="M274.877 356.541H115.047C114.11 356.509 113.217 356.137 112.538 355.494C111.86 354.852 111.442 353.985 111.366 353.057L97.0468 77.6C97.0144 77.2336 97.0607 76.8645 97.1826 76.5172C97.3046 76.1698 97.4994 75.8521 97.7542 75.585C98.0098 75.3185 98.3194 75.1089 98.6627 74.9699C99.006 74.831 99.3751 74.7659 99.7455 74.779H259.575C260.51 74.8141 261.4 75.188 262.076 75.83C262.752 76.472 263.167 77.3376 263.243 78.263L277.628 353.72C277.659 354.085 277.613 354.453 277.491 354.799C277.37 355.145 277.176 355.461 276.922 355.728C276.668 355.994 276.361 356.204 276.02 356.344C275.679 356.484 275.311 356.551 274.942 356.541H274.877ZM99.7455 75.104C99.4198 75.0935 99.0955 75.1506 98.7933 75.2714C98.491 75.3923 98.2174 75.5744 97.99 75.806C97.7713 76.0461 97.604 76.3277 97.4981 76.6338C97.3923 76.94 97.3502 77.2642 97.3743 77.587L111.68 353.044C111.753 353.888 112.134 354.676 112.752 355.26C113.37 355.844 114.181 356.184 115.034 356.216H274.864C275.188 356.229 275.511 356.173 275.811 356.052C276.112 355.931 276.383 355.747 276.606 355.514C276.83 355.277 277.001 354.996 277.107 354.689C277.213 354.382 277.252 354.056 277.222 353.733L262.929 78.276C262.859 77.4335 262.48 76.6455 261.865 76.061C261.249 75.4766 260.439 75.1361 259.588 75.104H99.7455Z" fill="white"/>
<path opacity="0.3" d="M218.971 175.172C237.15 156.661 235.967 126.26 216.327 107.269C196.688 88.2778 166.031 87.8887 147.852 106.4C129.673 124.911 130.857 155.312 150.496 174.303C170.135 193.294 200.793 193.683 218.971 175.172Z" fill="white"/>
<path d="M222.605 140.793C222.971 147.181 221.677 153.556 218.845 159.305C215.779 165.471 211.021 170.652 205.117 174.252C199.214 177.851 192.406 179.723 185.477 179.65C178.297 179.586 171.256 177.678 165.039 174.113C158.822 170.548 153.641 165.446 150 159.305C146.607 153.689 144.655 147.332 144.314 140.793C143.991 135.778 144.715 130.751 146.44 126.026C148.165 121.301 150.854 116.98 154.339 113.334C157.824 109.688 162.03 106.795 166.694 104.836C171.357 102.877 176.378 101.894 181.442 101.949C191.982 102.058 202.088 106.126 209.726 113.334C217.364 120.541 221.966 130.353 222.605 140.793Z" fill="white"/>
<path d="M218.806 159.305C215.74 165.471 210.982 170.652 205.078 174.252C199.175 177.851 192.366 179.722 185.438 179.65C178.258 179.586 171.217 177.678 165 174.113C158.783 170.548 153.602 165.446 149.961 159.305C159.916 152.482 171.741 148.852 183.84 148.905C196.262 148.951 208.405 152.563 218.806 159.305Z" fill="#407BFF"/>
<path d="M195.548 139.89C202.098 133.221 201.669 122.265 194.59 115.421C187.512 108.576 176.464 108.433 169.915 115.102C163.366 121.772 163.794 132.727 170.873 139.572C177.951 146.416 188.999 146.559 195.548 139.89Z" fill="#407BFF"/>
<path d="M251.964 255.7H126.812C125.722 255.689 124.676 255.268 123.886 254.523C123.096 253.778 122.62 252.763 122.554 251.683L121.611 233.483C121.578 232.965 121.654 232.447 121.833 231.959C122.012 231.472 122.29 231.026 122.65 230.65C123.01 230.274 123.445 229.976 123.927 229.775C124.408 229.573 124.927 229.473 125.449 229.479H250.601C251.689 229.49 252.733 229.909 253.522 230.651C254.312 231.394 254.789 232.406 254.859 233.483L255.802 251.683C255.836 252.202 255.762 252.722 255.584 253.211C255.406 253.7 255.128 254.147 254.768 254.524C254.407 254.902 253.972 255.201 253.49 255.403C253.007 255.605 252.487 255.707 251.964 255.7Z" fill="white"/>
<path opacity="0.3" d="M213.644 219.43H161.372C160.277 219.422 159.227 219.001 158.434 218.252C157.64 217.504 157.164 216.484 157.101 215.4L156.904 211.5C156.87 210.981 156.944 210.461 157.122 209.972C157.3 209.483 157.578 209.036 157.938 208.659C158.299 208.281 158.734 207.982 159.217 207.78C159.699 207.578 160.219 207.476 160.743 207.483H213.002C214.092 207.494 215.137 207.915 215.927 208.66C216.717 209.405 217.193 210.42 217.26 211.5L217.469 215.4C217.501 215.918 217.426 216.437 217.249 216.925C217.071 217.412 216.794 217.859 216.436 218.237C216.077 218.614 215.644 218.915 215.164 219.12C214.684 219.326 214.167 219.431 213.644 219.43Z" fill="black"/>
<path opacity="0.3" d="M233.085 343.203H154.782C152.928 343.18 151.151 342.463 149.807 341.195C148.464 339.927 147.653 338.201 147.537 336.365L147.079 327.395C147.032 326.513 147.168 325.632 147.476 324.804C147.784 323.975 148.26 323.218 148.873 322.579C149.485 321.939 150.223 321.43 151.041 321.082C151.859 320.734 152.739 320.556 153.629 320.557H231.906C233.76 320.58 235.537 321.297 236.881 322.565C238.225 323.833 239.035 325.558 239.151 327.395L239.609 336.365C239.656 337.244 239.521 338.124 239.214 338.95C238.908 339.776 238.435 340.532 237.825 341.172C237.215 341.811 236.48 342.321 235.665 342.67C234.85 343.019 233.973 343.201 233.085 343.203Z" fill="black"/>
<path d="M254.256 299.718H129.091C128.002 299.704 126.959 299.282 126.169 298.537C125.38 297.793 124.903 296.78 124.834 295.701L123.89 277.501C123.858 276.983 123.933 276.463 124.112 275.975C124.291 275.487 124.569 275.041 124.929 274.664C125.289 274.287 125.724 273.988 126.205 273.785C126.687 273.582 127.206 273.479 127.729 273.484H252.881C253.971 273.495 255.016 273.916 255.806 274.661C256.596 275.407 257.072 276.421 257.138 277.501L258.095 295.701C258.125 296.219 258.048 296.737 257.869 297.225C257.69 297.712 257.411 298.158 257.052 298.534C256.692 298.91 256.258 299.21 255.778 299.413C255.297 299.617 254.779 299.721 254.256 299.718Z" fill="white"/>
<path d="M142.69 242.583C142.726 243.157 142.642 243.733 142.444 244.274C142.246 244.815 141.937 245.31 141.538 245.727C141.138 246.144 140.656 246.475 140.122 246.699C139.587 246.923 139.012 247.035 138.432 247.029C137.227 247.015 136.072 246.548 135.2 245.723C134.327 244.899 133.802 243.777 133.729 242.583C133.691 242.009 133.773 241.434 133.97 240.893C134.167 240.352 134.474 239.857 134.872 239.44C135.271 239.022 135.752 238.691 136.286 238.467C136.82 238.243 137.394 238.13 137.974 238.137C139.18 238.151 140.336 238.617 141.211 239.442C142.086 240.266 142.614 241.388 142.69 242.583Z" fill="#263238"/>
<path d="M156.485 242.583C156.523 243.157 156.441 243.732 156.244 244.273C156.047 244.814 155.74 245.309 155.342 245.726C154.943 246.144 154.462 246.475 153.928 246.699C153.394 246.923 152.82 247.036 152.24 247.029C151.034 247.018 149.878 246.552 149.005 245.727C148.131 244.902 147.607 243.778 147.537 242.583C147.499 242.009 147.581 241.434 147.778 240.893C147.975 240.352 148.282 239.857 148.681 239.44C149.079 239.022 149.56 238.691 150.094 238.467C150.628 238.243 151.202 238.13 151.782 238.137C152.988 238.148 154.144 238.614 155.018 239.439C155.891 240.264 156.415 241.388 156.485 242.583Z" fill="#263238"/>
<path d="M170.202 242.583C170.24 243.157 170.158 243.732 169.961 244.273C169.764 244.814 169.457 245.309 169.058 245.726C168.66 246.144 168.178 246.475 167.645 246.699C167.111 246.923 166.536 247.036 165.957 247.029C164.751 247.015 163.594 246.549 162.72 245.724C161.845 244.9 161.317 243.778 161.241 242.583C161.205 242.008 161.288 241.433 161.487 240.892C161.685 240.351 161.993 239.856 162.393 239.439C162.793 239.022 163.275 238.691 163.809 238.467C164.343 238.243 164.918 238.131 165.498 238.137C166.703 238.151 167.858 238.618 168.731 239.442C169.603 240.267 170.129 241.389 170.202 242.583Z" fill="#263238"/>
<path d="M184.023 242.583C184.059 243.156 183.976 243.731 183.778 244.271C183.581 244.811 183.273 245.305 182.875 245.722C182.477 246.139 181.996 246.47 181.464 246.695C180.931 246.92 180.357 247.034 179.778 247.029C178.572 247.015 177.415 246.549 176.541 245.724C175.666 244.9 175.138 243.778 175.062 242.583C175.026 242.009 175.109 241.435 175.307 240.895C175.504 240.355 175.812 239.861 176.21 239.444C176.608 239.027 177.088 238.695 177.621 238.471C178.154 238.246 178.728 238.132 179.307 238.137C180.513 238.151 181.669 238.617 182.544 239.441C183.419 240.266 183.947 241.388 184.023 242.583Z" fill="#263238"/>
<path d="M145.009 286.575C145.047 287.149 144.965 287.724 144.768 288.265C144.571 288.806 144.264 289.301 143.865 289.718C143.467 290.136 142.986 290.467 142.452 290.691C141.918 290.915 141.344 291.028 140.764 291.021C139.558 291.007 138.401 290.541 137.527 289.716C136.652 288.892 136.124 287.77 136.048 286.575C136.012 286 136.095 285.425 136.294 284.884C136.492 284.343 136.801 283.848 137.2 283.431C137.6 283.014 138.082 282.683 138.616 282.459C139.15 282.235 139.726 282.122 140.306 282.129C141.511 282.143 142.665 282.61 143.538 283.434C144.411 284.259 144.936 285.381 145.009 286.575Z" fill="#263238"/>
<path d="M158.778 286.575C158.814 287.148 158.73 287.723 158.533 288.263C158.335 288.803 158.028 289.297 157.63 289.714C157.232 290.131 156.751 290.462 156.218 290.687C155.686 290.912 155.112 291.026 154.533 291.021C153.327 291.007 152.17 290.541 151.296 289.716C150.421 288.892 149.893 287.77 149.817 286.575C149.779 286.001 149.861 285.426 150.058 284.885C150.254 284.344 150.562 283.849 150.96 283.432C151.359 283.014 151.84 282.683 152.374 282.459C152.907 282.235 153.482 282.122 154.061 282.129C155.268 282.143 156.424 282.609 157.299 283.434C158.173 284.258 158.702 285.38 158.778 286.575Z" fill="#263238"/>
<path d="M172.547 286.575C172.583 287.149 172.499 287.725 172.301 288.266C172.102 288.807 171.794 289.302 171.394 289.719C170.995 290.136 170.513 290.467 169.978 290.691C169.444 290.915 168.869 291.027 168.289 291.021C167.083 291.01 165.926 290.544 165.053 289.719C164.18 288.893 163.655 287.77 163.586 286.575C163.548 286.001 163.63 285.426 163.826 284.885C164.023 284.344 164.331 283.849 164.729 283.432C165.128 283.014 165.609 282.683 166.143 282.459C166.676 282.235 167.251 282.122 167.83 282.129C169.037 282.143 170.193 282.609 171.068 283.433C171.942 284.258 172.471 285.38 172.547 286.575Z" fill="#263238"/>
<path d="M186.302 286.575C186.34 287.149 186.258 287.724 186.062 288.265C185.865 288.806 185.558 289.301 185.159 289.718C184.76 290.136 184.279 290.467 183.746 290.691C183.212 290.915 182.637 291.028 182.058 291.021C180.851 291.007 179.695 290.541 178.82 289.716C177.946 288.892 177.417 287.77 177.342 286.575C177.305 286 177.389 285.425 177.587 284.884C177.786 284.343 178.094 283.848 178.494 283.431C178.893 283.014 179.375 282.683 179.91 282.459C180.444 282.235 181.019 282.122 181.599 282.129C182.805 282.14 183.962 282.606 184.835 283.431C185.708 284.256 186.233 285.38 186.302 286.575Z" fill="#263238"/>
<path d="M200.071 286.575C200.109 287.149 200.027 287.724 199.831 288.265C199.634 288.806 199.326 289.301 198.928 289.718C198.529 290.136 198.048 290.467 197.514 290.691C196.981 290.915 196.406 291.028 195.827 291.021C194.62 291.007 193.464 290.541 192.589 289.717C191.715 288.892 191.186 287.77 191.11 286.575C191.074 286.002 191.158 285.427 191.355 284.887C191.553 284.347 191.86 283.853 192.258 283.436C192.657 283.019 193.137 282.688 193.67 282.463C194.202 282.238 194.776 282.124 195.355 282.129C196.561 282.143 197.718 282.609 198.593 283.434C199.467 284.258 199.995 285.38 200.071 286.575Z" fill="#263238"/>
<path d="M213.84 286.575C213.876 287.149 213.793 287.725 213.594 288.266C213.396 288.807 213.088 289.302 212.688 289.719C212.288 290.136 211.806 290.467 211.272 290.691C210.738 290.915 210.163 291.027 209.583 291.021C208.378 291.007 207.223 290.54 206.35 289.715C205.478 288.891 204.952 287.769 204.879 286.575C204.841 286.001 204.923 285.426 205.12 284.885C205.317 284.344 205.624 283.849 206.023 283.432C206.421 283.014 206.903 282.683 207.436 282.459C207.97 282.235 208.545 282.122 209.124 282.129C210.33 282.143 211.487 282.609 212.361 283.433C213.236 284.258 213.764 285.38 213.84 286.575Z" fill="#263238"/>
<path d="M362.783 135.606C363.111 136.1 363.281 136.36 363.49 136.711L364.08 137.673C364.46 138.323 364.801 138.973 365.128 139.61C365.783 140.91 366.438 142.21 366.962 143.51C368.06 146.092 369.005 148.736 369.792 151.427C371.378 156.744 372.423 162.205 372.91 167.729L373.002 168.756C373.013 168.964 373.013 169.172 373.002 169.38V170.069C373.023 170.973 372.971 171.878 372.844 172.773C372.593 174.433 372.154 176.06 371.534 177.622C370.383 180.412 368.859 183.036 367.001 185.422C363.537 189.825 359.425 193.685 354.805 196.875L351.189 192.676C354.479 188.989 357.393 184.987 359.888 180.729C361.01 178.798 361.89 176.737 362.508 174.593C362.758 173.685 362.903 172.752 362.94 171.811C362.981 171.409 362.981 171.004 362.94 170.602V170.329C362.953 170.208 362.953 170.086 362.94 169.965L362.783 169.055C361.941 164.21 360.75 159.431 359.22 154.755C358.46 152.428 357.53 150.179 356.599 147.982C356.141 146.877 355.617 145.798 355.093 144.758L354.281 143.224L353.875 142.509L353.534 141.937L362.783 135.606Z" fill="#803E3C"/>
<path d="M350.599 196.901L355.342 206.846L359.102 198.435C359.102 198.435 355.761 191.155 351.241 191.831L350.599 196.901Z" fill="#7F3E3B"/>
<path d="M358.735 207.34L362.508 201.204L359.102 198.435L355.342 206.846L358.735 207.34Z" fill="#7F3E3B"/>
<path d="M337.407 436.686C338.388 436.662 339.363 436.531 340.315 436.296C340.363 436.282 340.407 436.255 340.441 436.218C340.476 436.182 340.5 436.137 340.512 436.088C340.52 436.038 340.513 435.987 340.492 435.941C340.471 435.894 340.437 435.855 340.394 435.828C340.014 435.581 336.686 433.449 335.402 434.021C335.26 434.087 335.138 434.189 335.048 434.317C334.958 434.445 334.904 434.594 334.891 434.749C334.852 434.984 334.87 435.226 334.946 435.452C335.021 435.679 335.151 435.884 335.324 436.049C335.918 436.504 336.658 436.731 337.407 436.686ZM339.568 435.919C337.669 436.309 336.228 436.244 335.638 435.737C335.518 435.619 335.43 435.472 335.382 435.311C335.333 435.149 335.327 434.979 335.363 434.814C335.363 434.593 335.494 434.528 335.586 434.489C336.293 434.177 338.219 435.1 339.568 435.919Z" fill="#407BFF"/>
<path d="M340.25 436.296H340.381C340.42 436.271 340.453 436.236 340.475 436.195C340.498 436.154 340.511 436.109 340.512 436.062C340.512 435.932 340.512 432.799 339.306 431.746C339.158 431.614 338.984 431.516 338.794 431.457C338.604 431.399 338.403 431.382 338.206 431.408C337.999 431.41 337.8 431.482 337.64 431.612C337.48 431.742 337.37 431.922 337.328 432.123C337.079 433.358 339.071 435.698 340.119 436.296H340.25ZM338.376 431.889C338.482 431.886 338.588 431.904 338.687 431.942C338.786 431.98 338.876 432.037 338.953 432.11C339.644 433.121 340.001 434.321 339.975 435.542C338.926 434.71 337.682 432.942 337.839 432.201C337.839 432.084 337.931 431.928 338.258 431.889H338.376Z" fill="#407BFF"/>
<path d="M325.04 431.382C325.07 431.344 325.09 431.298 325.097 431.25C325.104 431.202 325.098 431.152 325.079 431.107C325.061 431.062 325.03 431.023 324.991 430.993C324.952 430.964 324.905 430.946 324.856 430.94C324.319 430.94 319.616 430.719 318.542 431.863V431.941C318.453 432.054 318.395 432.187 318.375 432.328C318.354 432.47 318.371 432.614 318.424 432.747C318.494 432.97 318.617 433.173 318.784 433.339C318.951 433.504 319.155 433.627 319.38 433.696C320.9 434.164 323.586 432.461 325.053 431.408L325.04 431.382ZM318.935 432.201C319.524 431.577 322.118 431.408 324.057 431.434C322.027 432.812 320.337 433.462 319.485 433.202C319.337 433.157 319.201 433.077 319.092 432.968C318.982 432.859 318.901 432.725 318.856 432.578C318.83 432.528 318.816 432.472 318.816 432.416C318.816 432.359 318.83 432.303 318.856 432.253L318.935 432.201Z" fill="#407BFF"/>
<path d="M325.04 431.382C325.059 431.342 325.07 431.297 325.07 431.252C325.07 431.207 325.059 431.163 325.04 431.122C324.974 431.018 323.507 428.522 321.778 428.002C321.529 427.93 321.269 427.909 321.012 427.94C320.755 427.971 320.507 428.054 320.284 428.184C319.655 428.548 319.616 428.977 319.695 429.25C320.035 430.459 323.376 431.525 324.817 431.512C324.862 431.511 324.907 431.499 324.946 431.476C324.985 431.453 325.017 431.421 325.04 431.382ZM320.337 428.782C320.41 428.71 320.494 428.649 320.585 428.6C320.747 428.498 320.93 428.432 321.12 428.407C321.31 428.383 321.503 428.4 321.686 428.457C322.826 428.756 323.887 430.212 324.372 430.927C322.813 430.758 320.441 429.809 320.245 429.081C320.228 429.026 320.228 428.967 320.244 428.912C320.261 428.856 320.293 428.807 320.337 428.769V428.782Z" fill="#407BFF"/>
<path d="M339.464 97.5291C338.154 104.029 335.324 118.082 339.87 122.398C339.87 122.398 338.088 128.898 325.996 128.898C312.686 128.898 319.642 122.398 319.642 122.398C326.9 120.682 326.717 115.326 325.446 110.308L339.464 97.5291Z" fill="#7F3E3B"/>
<path d="M317.297 82.2931C317.371 82.305 317.446 82.305 317.52 82.2931C317.582 82.2627 317.638 82.2204 317.683 82.1685C317.729 82.1166 317.764 82.0563 317.786 81.991C317.808 81.9257 317.816 81.8567 317.811 81.7881C317.806 81.7194 317.787 81.6525 317.756 81.5911C317.403 80.8496 316.877 80.2028 316.22 79.7051C315.564 79.2074 314.796 78.8734 313.983 78.7311C313.846 78.7198 313.711 78.7606 313.603 78.8451C313.496 78.9297 313.426 79.0517 313.406 79.1861C313.391 79.3221 313.431 79.4585 313.517 79.5655C313.603 79.6726 313.728 79.7418 313.865 79.7581C314.507 79.8805 315.111 80.153 315.626 80.5532C316.141 80.9534 316.552 81.4696 316.826 82.0591C316.876 82.136 316.947 82.1982 317.03 82.2393C317.112 82.2804 317.205 82.299 317.297 82.2931Z" fill="#263238"/>
<path d="M313.328 88C312.296 89.8977 311.009 91.6471 309.502 93.2C309.91 93.5705 310.394 93.8484 310.922 94.0145C311.449 94.1806 312.006 94.231 312.555 94.162L313.328 88Z" fill="#630F0F"/>
<path d="M314.31 86.531C314.205 87.402 313.642 88.052 313.079 87.987C312.515 87.922 312.122 87.155 312.227 86.284C312.332 85.413 312.895 84.763 313.537 84.828C314.179 84.893 314.402 85.66 314.31 86.531Z" fill="#263238"/>
<path d="M313.707 84.9061L311.69 84.1001C311.69 84.1001 312.542 85.8161 313.707 84.9061Z" fill="#263238"/>
<path d="M336.608 428.912L325.917 431.382L319.419 406.994L330.11 404.524L336.608 428.912Z" fill="#7F3E3B"/>
<path d="M353.01 436.036H342.044L342.896 410.829H353.874L353.01 436.036Z" fill="#7F3E3B"/>
<path d="M341.167 434.775H353.495C353.708 434.773 353.915 434.849 354.077 434.988C354.239 435.126 354.344 435.319 354.372 435.529L355.774 445.201C355.802 445.446 355.777 445.693 355.701 445.928C355.626 446.162 355.501 446.378 355.335 446.561C355.169 446.744 354.966 446.89 354.739 446.99C354.512 447.089 354.267 447.14 354.019 447.138C349.722 447.073 347.652 446.813 342.228 446.813C338.887 446.813 334.014 447.164 329.415 447.164C324.817 447.164 324.555 442.64 326.481 442.237C335.075 440.391 336.437 437.869 339.333 435.451C339.844 435.018 340.494 434.778 341.167 434.775Z" fill="#263238"/>
<path d="M324.974 429.757L336.175 424.648C336.366 424.558 336.582 424.54 336.785 424.597C336.988 424.655 337.162 424.784 337.276 424.96L342.634 433.176C342.759 433.387 342.838 433.623 342.866 433.866C342.894 434.11 342.87 434.357 342.796 434.591C342.722 434.824 342.599 435.04 342.436 435.224C342.273 435.409 342.072 435.557 341.848 435.659C337.918 437.375 335.926 438.012 331 440.261C327.974 441.639 321.83 444.811 317.664 446.761C313.498 448.711 311.349 444.668 312.921 443.498C319.957 438.298 321.974 434.567 323.585 431.174C323.858 430.549 324.352 430.045 324.974 429.757Z" fill="#263238"/>
<path opacity="0.2" d="M319.419 406.994L322.904 420.072L333.463 417.095L330.123 404.524L319.419 406.994Z" fill="black"/>
<path opacity="0.2" d="M353.874 410.829H342.896L342.464 423.829H353.442L353.874 410.829Z" fill="black"/>
<path d="M358.853 124.868C363.412 125.869 368.285 142.132 368.285 142.132L355.394 155.743C355.394 155.743 344.691 140.455 346.879 134.839C349.093 128.976 353.416 123.698 358.853 124.868Z" fill="#263238"/>
<path opacity="0.4" d="M351.569 135.229C349.263 133.136 347.704 133.76 346.643 135.424C345.595 140.26 351.805 150.387 354.307 154.222C355.46 149.646 356.783 140 351.569 135.229Z" fill="black"/>
<path d="M301.091 125.193C301.091 125.193 295.851 127.013 306.332 190.908H350.874C350.128 172.916 350.101 161.814 358.735 124.868C352.493 123.59 346.166 122.765 339.804 122.398C333.07 121.916 326.31 121.916 319.577 122.398C310.943 123.191 301.091 125.193 301.091 125.193Z" fill="#263238"/>
<path opacity="0.4" d="M300.685 149.711C300.974 152.818 301.353 156.315 301.851 160.267C305.506 157.004 308.493 147.722 307.393 142.314C304.782 144.417 302.518 146.913 300.685 149.711Z" fill="black"/>
<path d="M305.454 140C303.05 146.003 300.344 151.882 297.345 157.615C294.38 163.555 290.872 169.212 286.864 174.515L286.026 175.542L285.606 176.049C285.462 176.218 285.344 176.374 285.122 176.608C284.333 177.462 283.455 178.229 282.501 178.896C280.816 180.053 278.972 180.964 277.025 181.6C273.63 182.676 270.106 183.297 266.545 183.446C259.876 183.709 253.201 183.119 246.684 181.691L247.404 176.231C250.418 176.231 253.575 176.231 256.575 175.984C259.588 175.837 262.59 175.507 265.562 174.996C268.323 174.569 271.023 173.818 273.606 172.76C274.649 172.318 275.624 171.731 276.501 171.018C276.836 170.74 277.139 170.426 277.405 170.082C277.405 170.082 277.562 169.874 277.667 169.731L277.969 169.302L278.584 168.444C281.872 163.405 284.8 158.145 287.349 152.701C289.969 147.176 292.589 141.443 294.987 135.801L305.454 140Z" fill="#803E3C"/>
<path d="M301.091 125.193C295.628 126.493 288.921 141.365 288.921 141.365L300.24 157.875C300.24 157.875 315.319 139.038 313.524 133.292C311.69 127.299 307.76 123.581 301.091 125.193Z" fill="#263238"/>
<path d="M250.549 177.063L241.103 172.734L240.16 182.055C240.16 182.055 248.02 184.356 251.95 182.055L250.549 177.063Z" fill="#7F3E3B"/>
<path d="M235.457 171.798L234.553 178.896L240.16 182.055L241.103 172.734L235.457 171.798Z" fill="#7F3E3B"/>
<path d="M344.206 87.168C342.202 97.789 341.586 102.339 335.455 107.162C326.284 114.416 313.511 109.658 312.28 98.66C311.153 88.754 314.611 73.05 325.708 70.06C328.152 69.3908 330.728 69.3542 333.191 69.9535C335.654 70.5529 337.921 71.7682 339.776 73.4837C341.63 75.1992 343.012 77.3576 343.787 79.7532C344.563 82.1487 344.707 84.7014 344.206 87.168Z" fill="#7F3E3B"/>
<path d="M320.69 89.404C320.074 94.825 319.839 108.904 331.839 109.346C346.525 109.879 350.927 97.425 349.617 92.446C357.268 86.271 358.368 75.65 349.774 67.525C341.18 59.4 322.262 63.937 317.022 71.854C310.38 81.669 320.69 89.404 320.69 89.404Z" fill="#263238"/>
<path d="M335.402 70.6841C334.695 64.9641 335.245 61.0251 340.643 61.0251C346.04 61.0251 353.403 62.9621 356.102 68.4351C358.8 73.9081 359.023 82.4751 351.49 81.6042C343.957 80.7332 336.254 77.5221 335.402 70.6841Z" fill="#407BFF"/>
<path d="M343.761 69.3061C342.451 62.4941 348.595 43.3061 363.517 42.0061C370.434 41.4211 373.63 48.8051 370.067 50.0271C376.617 49.9491 380.81 58.5421 374.705 59.8291C379.526 62.8971 378.334 69.1891 371.456 72.2831C366.333 74.6231 345.529 78.7441 343.761 69.3061Z" fill="#263238"/>
<path d="M359.704 76.6252C354.896 76.6252 349.879 75.9232 346.761 73.8562C345.889 73.3347 345.155 72.6146 344.62 71.7555C344.084 70.8964 343.763 69.9231 343.682 68.9162C343.678 68.8307 343.707 68.747 343.763 68.6818C343.819 68.6167 343.898 68.575 343.983 68.5652C344.027 68.5598 344.071 68.5634 344.113 68.5758C344.155 68.5882 344.193 68.6091 344.227 68.6372C344.26 68.6654 344.287 68.7001 344.306 68.7392C344.325 68.7783 344.336 68.8208 344.337 68.8642C344.416 69.7729 344.71 70.6502 345.195 71.425C345.68 72.1998 346.342 72.8501 347.128 73.3232C353.062 77.2232 366.779 75.9232 371.05 74.6232C374.744 73.4272 377.246 71.1002 377.744 68.4222C377.899 67.4395 377.777 66.4333 377.391 65.5154C377.005 64.5974 376.37 63.8037 375.556 63.2222C375.525 63.193 375.5 63.1578 375.483 63.1187C375.466 63.0795 375.457 63.0374 375.457 62.9947C375.457 62.9521 375.466 62.9099 375.483 62.8708C375.5 62.8316 375.525 62.7964 375.556 62.7672C375.617 62.7077 375.7 62.6743 375.786 62.6743C375.871 62.6743 375.954 62.7077 376.015 62.7672C376.929 63.4293 377.64 64.3307 378.068 65.3707C378.496 66.4106 378.624 67.5482 378.438 68.6562C377.901 71.5812 375.242 74.0772 371.312 75.3512C367.519 76.2998 363.614 76.7285 359.704 76.6252Z" fill="#263238"/>
<path d="M317.35 88.0002C316.13 89.6983 315.627 91.8022 315.948 93.8632C316.38 96.5932 319.053 96.7752 320.992 95.0332C322.93 93.2912 324.62 90.1452 323.192 87.8832C322.875 87.3945 322.437 86.9947 321.92 86.7216C321.403 86.4485 320.824 86.3112 320.238 86.323C319.652 86.3347 319.079 86.495 318.574 86.7885C318.068 87.0821 317.647 87.4992 317.35 88.0002Z" fill="#7F3E3B"/>
<path d="M318.096 190.908C318.096 190.908 324.463 265.645 331.079 307.765C336.411 341.786 340.63 421.307 340.63 421.307H355.591C355.591 421.307 360.91 344.165 358.211 310.521C351.359 225.371 366.648 218.429 350.914 190.921L318.096 190.908Z" fill="#407BFF"/>
<path opacity="0.4" d="M336.935 219.157C331.006 225.332 326.221 232.497 322.799 240.321C324.542 257.117 326.612 275.759 328.813 292.087C337.844 268.886 340.643 243.755 336.935 219.157Z" fill="black"/>
<path d="M307.629 190.44C307.629 190.44 293.807 272.067 291.633 308.857C297.056 342.878 319.249 414.794 319.249 414.794L332.861 409.893C332.861 409.893 325.328 331.477 317.14 310.014C335.573 248.433 349.119 232.859 345.176 190.908C335.73 190.908 307.629 190.44 307.629 190.44Z" fill="#407BFF"/>
<path d="M317.428 418.382L335.822 413.429L334.773 406.149L315.083 411.44L317.428 418.382Z" fill="#263238"/>
<path d="M338.573 421.606H357.634L358.63 414.976L338.468 414.3L338.573 421.606Z" fill="#263238"/>
<path d="M351.569 188.308L353.573 192.273C353.73 192.585 353.364 192.897 352.853 192.897H306.109C305.716 192.897 305.375 192.702 305.349 192.442L304.943 188.542C304.943 188.269 305.271 188.035 305.703 188.035H350.835C350.971 188.017 351.109 188.032 351.237 188.08C351.365 188.127 351.479 188.206 351.569 188.308Z" fill="#407BFF"/>
<path opacity="0.5" d="M351.569 188.308L353.573 192.273C353.73 192.585 353.364 192.897 352.853 192.897H306.109C305.716 192.897 305.375 192.702 305.349 192.442L304.943 188.542C304.943 188.269 305.271 188.035 305.703 188.035H350.835C350.971 188.017 351.109 188.032 351.237 188.08C351.365 188.127 351.479 188.206 351.569 188.308Z" fill="black"/>
<path d="M345.503 193.3H346.708C346.957 193.3 347.141 193.17 347.128 193.027L346.551 187.827C346.551 187.671 346.328 187.554 346.093 187.554H344.874C344.638 187.554 344.455 187.671 344.468 187.827L345.031 193.027C345.058 193.196 345.267 193.3 345.503 193.3Z" fill="#407BFF"/>
<path d="M329.284 155.444C329.14 155.442 329 155.394 328.884 155.308C328.769 155.221 328.684 155.101 328.642 154.963C324.371 139.285 315.542 126.363 311.258 124.413C310.925 124.21 310.525 124.145 310.144 124.231C310.065 124.273 309.978 124.297 309.889 124.304C309.8 124.311 309.71 124.3 309.626 124.271C309.541 124.242 309.463 124.196 309.397 124.136C309.331 124.077 309.278 124.004 309.241 123.923C309.205 123.842 309.185 123.755 309.184 123.666C309.182 123.577 309.199 123.489 309.234 123.407C309.268 123.325 309.319 123.251 309.383 123.189C309.447 123.128 309.523 123.08 309.607 123.048C309.965 122.918 310.347 122.866 310.728 122.898C311.108 122.929 311.476 123.043 311.808 123.23C316.341 125.362 325.302 138.102 329.782 154.131C332.992 154.131 337.944 153.702 339.149 153.598C340.643 151.83 351.621 138.206 347.521 123.295C347.497 123.213 347.49 123.127 347.5 123.043C347.511 122.958 347.538 122.876 347.581 122.802C347.624 122.728 347.681 122.664 347.749 122.612C347.818 122.561 347.896 122.523 347.979 122.502C348.146 122.458 348.323 122.482 348.473 122.567C348.623 122.652 348.732 122.792 348.778 122.957C353.35 139.545 340.092 154.508 339.948 154.651C339.897 154.714 339.834 154.766 339.762 154.804C339.689 154.842 339.61 154.865 339.529 154.872C339.464 154.872 332.926 155.444 329.284 155.444Z" fill="#407BFF"/>
<path d="M350.992 164.622C343.852 151.349 340.931 150.413 339.66 146.149C340.623 143.765 341.997 141.565 343.721 139.649C342.857 139.402 340.996 139.038 339.791 138.817C339.922 138.232 340.066 137.66 340.197 137.101C338.886 136.955 337.559 137.017 336.267 137.283V135.983C334.603 135.624 332.894 135.514 331.197 135.658C331.345 136.273 331.49 136.897 331.629 137.53C330.319 137.777 328.328 138.18 327.372 138.453C329.23 140.542 330.595 143.015 331.367 145.694C327.516 152.259 312.555 194.457 336.896 197.694C361.237 200.931 358.119 177.908 350.992 164.622Z" fill="#407BFF"/>
<path opacity="0.4" d="M350.992 164.622C343.852 151.349 340.931 150.413 339.66 146.149C340.623 143.765 341.997 141.565 343.721 139.649C342.857 139.402 340.996 139.038 339.791 138.817C339.922 138.232 340.066 137.66 340.197 137.101C338.886 136.955 337.559 137.017 336.267 137.283V135.983C334.603 135.624 332.894 135.514 331.197 135.658C331.345 136.273 331.49 136.897 331.629 137.53C330.319 137.777 328.328 138.18 327.372 138.453C329.23 140.542 330.595 143.015 331.367 145.694C327.516 152.259 312.555 194.457 336.896 197.694C361.237 200.931 358.119 177.908 350.992 164.622Z" fill="white"/>
<path d="M330.372 144.433C330.22 145.103 330.154 145.788 330.175 146.474C330.175 146.955 331.485 147.28 332.939 147.423C334.394 147.566 340.499 147.8 340.302 147.124C340.105 146.448 340.603 145.525 340.63 144.953C340.656 144.381 338.206 144.355 336.149 144.433C334.092 144.511 330.778 143.705 330.372 144.433Z" fill="#407BFF"/>
<path d="M316.21 193.3H317.415C317.651 193.3 317.834 193.17 317.821 193.027L317.258 187.827C317.258 187.671 317.035 187.554 316.786 187.554H315.62C315.384 187.554 315.201 187.671 315.214 187.827L315.777 193.027C315.751 193.196 315.961 193.3 316.21 193.3Z" fill="#407BFF"/>
</g>
<defs>
<clipPath id="clip0_373_3685">
<rect width="508" height="462" fill="white"/>
</clipPath>
</defs>
</svg>
