<svg width="504" height="470" viewBox="0 0 504 470" fill="none" xmlns="http://www.w3.org/2000/svg">
<g clip-path="url(#clip0_412_15957)">
<path d="M577 411.12H-73V411.445H577V411.12Z" fill="#EBEBEB"/>
<path d="M504.057 423.496H461.001V423.821H504.057V423.496Z" fill="#EBEBEB"/>
<path d="M162.729 427.903H97.9109V428.228H162.729V427.903Z" fill="#EBEBEB"/>
<path d="M459.701 435.573H421.312V435.898H459.701V435.573Z" fill="#EBEBEB"/>
<path d="M23.2782 433.389H-4.80176V433.714H23.2782V433.389Z" fill="#EBEBEB"/>
<path d="M84.7289 433.389H34.8479V433.714H84.7289V433.389Z" fill="#EBEBEB"/>
<path d="M357.586 419.973H235.802V420.298H357.586V419.973Z" fill="#EBEBEB"/>
<path d="M235.1 353.14H-15.9169C-17.8834 353.137 -19.7681 352.353 -21.1574 350.961C-22.5466 349.57 -23.3269 347.683 -23.3269 345.717V-7.142C-23.3098 -9.09717 -22.522 -10.9666 -21.1345 -12.3443C-19.7471 -13.722 -17.8721 -14.4967 -15.9169 -14.5H235.1C237.069 -14.5 238.957 -13.7179 240.349 -12.3259C241.741 -10.9338 242.523 -9.0457 242.523 -7.077V345.717C242.523 347.686 241.741 349.574 240.349 350.966C238.957 352.358 237.069 353.14 235.1 353.14ZM-15.9169 -14.24C-17.7972 -14.2366 -19.5992 -13.4872 -20.9275 -12.1565C-22.2559 -10.8257 -23.0019 -9.02226 -23.0019 -7.142V345.717C-23.0019 347.597 -22.2559 349.401 -20.9275 350.731C-19.5992 352.062 -17.7972 352.812 -15.9169 352.815H235.1C236.982 352.812 238.785 352.063 240.115 350.732C241.446 349.402 242.195 347.598 242.198 345.717V-7.142C242.195 -9.02345 241.446 -10.8269 240.115 -12.1572C238.785 -13.4876 236.982 -14.2366 235.1 -14.24H-15.9169Z" fill="#EBEBEB"/>
<path d="M516.303 353.14H265.273C263.305 353.137 261.419 352.353 260.028 350.962C258.637 349.571 257.854 347.685 257.85 345.717V-7.142C257.871 -9.09835 258.661 -10.9678 260.051 -12.3451C261.44 -13.7225 263.317 -14.4967 265.273 -14.5H516.303C518.256 -14.4932 520.128 -13.7171 521.512 -12.3398C522.897 -10.9624 523.683 -9.09492 523.7 -7.142V345.717C523.7 347.681 522.922 349.565 521.535 350.957C520.149 352.348 518.267 353.133 516.303 353.14ZM265.273 -14.24C263.392 -14.2366 261.588 -13.4876 260.258 -12.1572C258.927 -10.8269 258.179 -9.02345 258.175 -7.142V345.717C258.179 347.598 258.927 349.402 260.258 350.732C261.588 352.063 263.392 352.812 265.273 352.815H516.303C518.185 352.812 519.988 352.063 521.318 350.732C522.649 349.402 523.398 347.598 523.401 345.717V-7.142C523.398 -9.02345 522.649 -10.8269 521.318 -12.1572C519.988 -13.4876 518.185 -14.2366 516.303 -14.24H265.273Z" fill="#EBEBEB"/>
<path d="M68.323 193.045L420.896 193.045V20.8469L68.323 20.8469V193.045Z" fill="#E6E6E6"/>
<path d="M61.719 193.045L417.815 193.045V20.8469L61.719 20.8469V193.045Z" fill="#F0F0F0"/>
<path d="M68.323 205.317L420.896 205.317V193.045L68.323 193.045V205.317Z" fill="#E6E6E6"/>
<path d="M50.7082 205.317L406.804 205.317V193.045L50.7082 193.045V205.317Z" fill="#F0F0F0"/>
<path d="M408.572 183.815V30.103L70.9618 30.103V183.815L408.572 183.815Z" fill="#FAFAFA"/>
<path d="M163.821 183.815L149.027 30.103H123.417L138.211 183.815H163.821Z" fill="white"/>
<path d="M360.966 183.815L346.159 30.103H320.549L335.356 183.815H360.966Z" fill="white"/>
<path d="M404.295 131.711C404.482 131.708 404.661 131.631 404.792 131.497C404.923 131.363 404.997 131.183 404.997 130.996V36.0961C405.01 35.995 405.002 35.8922 404.973 35.7944C404.944 35.6967 404.894 35.6064 404.827 35.5296C404.76 35.4527 404.677 35.3911 404.584 35.3489C404.491 35.3067 404.39 35.2849 404.288 35.2849C404.186 35.2849 404.085 35.3067 403.993 35.3489C403.9 35.3911 403.817 35.4527 403.75 35.5296C403.683 35.6064 403.633 35.6967 403.603 35.7944C403.574 35.8922 403.566 35.995 403.58 36.0961V130.996C403.58 131.09 403.598 131.183 403.634 131.27C403.67 131.356 403.723 131.435 403.789 131.502C403.856 131.568 403.934 131.621 404.021 131.657C404.108 131.693 404.201 131.711 404.295 131.711Z" fill="#F0F0F0"/>
<path d="M132.712 183.815L117.905 30.103H107.921L122.728 183.815H132.712Z" fill="white"/>
<path d="M72.1321 183.815L72.1321 30.103H70.9621L70.9621 183.815H72.1321Z" fill="#E6E6E6"/>
<path opacity="0.5" d="M59.5349 46.8599H412.108L412.953 33.6909H60.3799L59.5349 46.8599Z" fill="#E0E0E0"/>
<path opacity="0.5" d="M59.5349 68.5049H412.108L412.953 55.3359H60.3799L59.5349 68.5049Z" fill="#E0E0E0"/>
<path opacity="0.5" d="M59.5349 90.15H412.108L412.953 76.981H60.3799L59.5349 90.15Z" fill="#E0E0E0"/>
<path opacity="0.5" d="M59.5349 111.795H412.108L412.953 98.626H60.3799L59.5349 111.795Z" fill="#E0E0E0"/>
<path opacity="0.5" d="M59.5349 133.44H412.108L412.953 120.271H60.3799L59.5349 133.44Z" fill="#E0E0E0"/>
<path opacity="0.5" d="M59.5349 155.085H412.108L412.953 141.916H60.3799L59.5349 155.085Z" fill="#E0E0E0"/>
<path d="M271.032 411.12H293.21V262.868H271.032V411.12Z" fill="#E6E6E6"/>
<path d="M276.856 411.12H271.032V390.931H282.979L276.856 411.12Z" fill="#F0F0F0"/>
<path d="M475.561 411.12H497.739V262.868H475.561V411.12Z" fill="#E6E6E6"/>
<path d="M271.019 398.731H480.631V262.868H271.019V398.731Z" fill="#F0F0F0"/>
<path d="M275.543 306.132H476.107V268.874H275.543V306.132Z" fill="#E6E6E6"/>
<path d="M310.5 280.457H437.25C442.944 280.457 448.378 275.868 452.291 267.743H295.459C299.372 275.868 304.806 280.457 310.5 280.457Z" fill="#F0F0F0"/>
<path d="M474.807 411.12H480.644V390.931H468.697L474.807 411.12Z" fill="#F0F0F0"/>
<path d="M275.543 349.422H476.107V312.164H275.543V349.422Z" fill="#E6E6E6"/>
<path d="M310.5 323.747H437.25C442.944 323.747 448.378 319.145 452.291 311.033H295.459C299.372 319.145 304.806 323.747 310.5 323.747Z" fill="#F0F0F0"/>
<path d="M275.543 392.712H476.107V355.454H275.543V392.712Z" fill="#E6E6E6"/>
<path d="M310.5 367.024H437.25C442.944 367.024 448.378 362.422 452.291 354.31H295.459C299.372 362.422 304.806 367.024 310.5 367.024Z" fill="#F0F0F0"/>
<path d="M125.003 217.121H99.289C96.0294 217.121 93.387 219.764 93.387 223.023V232.903C93.387 236.163 96.0294 238.805 99.289 238.805H125.003C128.263 238.805 130.905 236.163 130.905 232.903V223.023C130.905 219.764 128.263 217.121 125.003 217.121Z" fill="#F5F5F5"/>
<path d="M171.946 217.121H146.232C142.972 217.121 140.33 219.764 140.33 223.023V232.903C140.33 236.163 142.972 238.805 146.232 238.805H171.946C175.206 238.805 177.848 236.163 177.848 232.903V223.023C177.848 219.764 175.206 217.121 171.946 217.121Z" fill="#F5F5F5"/>
<path d="M34.2241 212.779C34.2241 212.779 35.1211 238.779 69.4151 238.779C103.709 238.779 104.593 212.779 104.593 212.779H34.2241Z" fill="#F0F0F0"/>
<path d="M181.709 402.644H219.461L219.461 246.995H181.709L181.709 402.644Z" fill="#F0F0F0"/>
<path d="M26.0602 411.12H212.22V402.644H26.0602V411.12Z" fill="#F0F0F0"/>
<path d="M181.709 246.982H18.8059V402.631H181.709V246.982Z" fill="#F5F5F5"/>
<path d="M166.876 306.873H33.6521V342.753H166.876V306.873Z" fill="#F0F0F0"/>
<path d="M166.876 350.761H33.6521V386.641H166.876V350.761Z" fill="#F0F0F0"/>
<path d="M84.6251 311.683H115.89C116.685 311.68 117.447 311.362 118.01 310.8C118.572 310.237 118.89 309.475 118.893 308.68C118.893 307.882 118.577 307.117 118.014 306.552C117.451 305.987 116.688 305.668 115.89 305.664H84.6251C83.8274 305.668 83.0636 305.987 82.5008 306.552C81.938 307.117 81.6221 307.882 81.6221 308.68C81.6255 309.475 81.943 310.237 82.5054 310.8C83.0678 311.362 83.8297 311.68 84.6251 311.683Z" fill="#F5F5F5"/>
<path d="M166.876 262.998H33.6521V298.878H166.876V262.998Z" fill="#F0F0F0"/>
<path d="M84.6251 267.808H115.89C116.688 267.805 117.451 267.485 118.014 266.92C118.577 266.355 118.893 265.59 118.893 264.792C118.89 263.997 118.572 263.235 118.01 262.672C117.447 262.11 116.685 261.792 115.89 261.789H84.6251C83.8297 261.792 83.0678 262.11 82.5054 262.672C81.943 263.235 81.6255 263.997 81.6221 264.792C81.6221 265.59 81.938 266.355 82.5008 266.92C83.0636 267.485 83.8274 267.805 84.6251 267.808Z" fill="#F5F5F5"/>
<path d="M84.6251 355.558H115.89C117.549 355.558 118.893 354.214 118.893 352.555V352.542C118.893 350.884 117.549 349.539 115.89 349.539H84.6251C82.9666 349.539 81.6221 350.884 81.6221 352.542V352.555C81.6221 354.214 82.9666 355.558 84.6251 355.558Z" fill="#F5F5F5"/>
<path d="M13.775 246.982L181.709 246.982V238.792L13.775 238.792V246.982Z" fill="#F0F0F0"/>
<path d="M224.739 238.805H181.709V246.995H224.739V238.805Z" fill="#E6E6E6"/>
<path d="M433.688 152.147L424.367 138.029C424.692 219.747 426.07 224.453 426.031 238.519H433.506C434.546 170.1 437.432 169.697 433.688 152.147Z" fill="#E0E0E0"/>
<path d="M430.1 262.855C451.537 262.855 469.62 254.158 474.014 242.393C475.138 239.174 476.676 236.115 478.59 233.293L478.928 232.812H381.246L381.584 233.293C383.507 236.112 385.05 239.171 386.173 242.393C390.567 254.158 408.65 262.855 430.1 262.855Z" fill="#FAFAFA"/>
<path d="M381.051 235.724H479.123C480.447 235.721 481.733 235.279 482.78 234.467C483.826 233.656 484.575 232.521 484.908 231.239C485.134 230.357 485.155 229.434 484.97 228.543C484.785 227.651 484.399 226.813 483.841 226.093C483.283 225.373 482.567 224.79 481.75 224.389C480.932 223.988 480.034 223.778 479.123 223.777H381.051C380.139 223.776 379.24 223.983 378.421 224.384C377.602 224.785 376.885 225.368 376.327 226.088C375.768 226.809 375.382 227.648 375.198 228.54C375.014 229.433 375.038 230.357 375.266 231.239C375.595 232.523 376.342 233.661 377.39 234.473C378.437 235.285 379.726 235.725 381.051 235.724Z" fill="#F0F0F0"/>
<path d="M430.867 140.772C429.008 118.672 406.271 116.488 363.735 106.075C384.6 166.2 437.9 224.011 430.867 140.772Z" fill="#E0E0E0"/>
<path d="M424.705 129.163C421.559 111.613 424.848 93.0099 474.105 94.8299C461.768 143.151 439.343 210.647 424.705 129.163Z" fill="#E0E0E0"/>
<path d="M426.941 172.011C428.436 151.796 444.01 127.811 494.996 145.062C472.324 184.296 423.327 220.8 426.941 172.011Z" fill="#E0E0E0"/>
<path d="M252 469.828C391.207 469.828 504.057 463.239 504.057 455.112C504.057 446.985 391.207 440.396 252 440.396C112.793 440.396 -0.0571289 446.985 -0.0571289 455.112C-0.0571289 463.239 112.793 469.828 252 469.828Z" fill="#F5F5F5"/>
<path d="M102.175 273.112H261.698V264.506H102.175V273.112Z" fill="#407BFF"/>
<path opacity="0.5" d="M102.175 273.112H261.698V264.506H102.175V273.112Z" fill="white"/>
<path d="M102.175 264.506H29.1279V273.112H102.175V264.506Z" fill="#407BFF"/>
<path opacity="0.5" d="M102.175 264.506H29.1279V273.112H102.175V264.506Z" fill="white"/>
<path opacity="0.2" d="M102.175 264.506H29.1279V273.112H102.175V264.506Z" fill="black"/>
<path d="M34.068 282.29H256.784L258.695 273.112H32.144L34.068 282.29Z" fill="#407BFF"/>
<path opacity="0.6" d="M34.068 282.29H256.784L258.695 273.112H32.144L34.068 282.29Z" fill="black"/>
<path d="M233.657 282.29V450.289H228.626L222.282 282.29H233.657Z" fill="#407BFF"/>
<path opacity="0.5" d="M233.657 282.29V450.289H228.626L222.282 282.29H233.657Z" fill="white"/>
<path d="M174.195 282.29V450.289H169.164L162.82 282.29H174.195Z" fill="#407BFF"/>
<path opacity="0.5" d="M174.195 282.29V450.289H169.164L162.82 282.29H174.195Z" fill="white"/>
<path d="M45.2869 282.29V450.289H50.3179L56.6619 282.29H45.2869Z" fill="#407BFF"/>
<path opacity="0.5" d="M45.2869 282.29V450.289H50.3179L56.6619 282.29H45.2869Z" fill="white"/>
<path d="M104.749 282.29V450.289H109.78L116.124 282.29H104.749Z" fill="#407BFF"/>
<path opacity="0.5" d="M104.749 282.29V450.289H109.78L116.124 282.29H104.749Z" fill="white"/>
<path d="M443.503 156.502C446.35 162.053 448.963 167.591 451.472 173.259C453.981 178.927 456.308 184.66 458.453 190.562C458.96 192.07 459.506 193.526 459.974 195.073L460.338 196.217L460.533 196.789C460.533 196.984 460.728 197.465 460.806 197.79C461.089 199.069 461.185 200.383 461.092 201.69C460.902 203.787 460.38 205.841 459.545 207.774C458.86 209.426 458.038 211.017 457.088 212.532C453.562 218.026 449.228 222.956 444.231 227.157L439.434 222.763C442.655 218.013 445.485 213.008 447.897 207.8C448.407 206.629 448.841 205.426 449.197 204.199C449.473 203.281 449.592 202.323 449.548 201.365C449.55 201.161 449.501 200.96 449.405 200.78C449.405 200.78 449.405 200.845 449.34 200.689L449.145 200.182L448.742 199.168C448.222 197.868 447.611 196.464 447.039 195.099C444.699 189.652 442.164 184.205 439.577 178.758L431.777 162.443L443.503 156.502Z" fill="#FF8B7B"/>
<path d="M440.864 221.19L434.975 223.712L440.838 231.837C440.838 231.837 445.102 229.445 445.635 225.272L440.864 221.19Z" fill="#FF8B7B"/>
<path d="M427.006 227.768L433.493 233.852L440.838 231.837L434.975 223.712L427.006 227.768Z" fill="#FF8B7B"/>
<path d="M402.891 115.747C402.748 116.436 402.28 116.917 401.825 116.826C401.37 116.735 401.136 116.098 401.266 115.422C401.396 114.746 401.89 114.252 402.332 114.343C402.774 114.434 403.034 115.058 402.891 115.747Z" fill="#263238"/>
<path d="M402.345 116.93C401.099 118.859 399.594 120.609 397.873 122.13C398.27 122.564 398.758 122.905 399.302 123.13C399.845 123.354 400.431 123.457 401.019 123.43L402.345 116.93Z" fill="#ED847E"/>
<path d="M406.18 112.458C406.121 112.456 406.063 112.443 406.009 112.418C405.956 112.393 405.908 112.358 405.868 112.315C405.529 111.929 405.104 111.629 404.628 111.437C404.151 111.245 403.637 111.167 403.125 111.21C403.072 111.219 403.018 111.218 402.965 111.207C402.913 111.195 402.863 111.173 402.819 111.142C402.775 111.112 402.737 111.073 402.708 111.027C402.679 110.982 402.66 110.931 402.65 110.878C402.641 110.826 402.642 110.771 402.654 110.719C402.665 110.666 402.687 110.617 402.718 110.573C402.749 110.528 402.788 110.491 402.833 110.462C402.878 110.433 402.929 110.413 402.982 110.404C403.626 110.326 404.28 110.403 404.888 110.63C405.496 110.856 406.042 111.224 406.479 111.704C406.53 111.763 406.564 111.836 406.576 111.914C406.588 111.991 406.578 112.071 406.547 112.143C406.515 112.215 406.464 112.277 406.399 112.321C406.335 112.365 406.258 112.39 406.18 112.393V112.458Z" fill="#263238"/>
<path d="M422.404 125.38C421.104 131.724 419.921 143.333 424.354 147.571C424.354 147.571 422.625 153.993 410.847 153.993C397.847 153.993 404.659 147.571 404.659 147.571C411.718 145.881 411.536 140.629 410.314 135.702L422.404 125.38Z" fill="#FF8B7B"/>
<path d="M427.396 149.586C428.345 147.558 429.411 145.231 427.032 144.607C424.432 143.918 410.197 143.619 405.361 145.283C400.525 146.947 402.072 150.925 402.072 150.925L427.396 149.586Z" fill="#407BFF"/>
<path d="M401.305 445.7C400.2 445.7 399.121 445.544 398.705 445.037C398.614 444.905 398.566 444.748 398.566 444.588C398.566 444.428 398.614 444.272 398.705 444.14C398.776 444.021 398.87 443.917 398.982 443.835C399.093 443.752 399.22 443.692 399.355 443.659C400.798 443.269 403.827 444.959 403.944 445.076C403.981 445.095 404.012 445.125 404.03 445.163C404.049 445.2 404.055 445.243 404.048 445.284C404.041 445.324 404.023 445.362 403.995 445.392C403.968 445.422 403.932 445.443 403.892 445.453C403.038 445.606 402.173 445.688 401.305 445.7ZM399.94 444.01C399.806 443.989 399.67 443.989 399.537 444.01C399.453 444.026 399.374 444.06 399.305 444.109C399.235 444.159 399.177 444.222 399.134 444.296C398.991 444.556 399.043 444.673 399.134 444.751C399.537 445.31 401.734 445.323 403.333 445.089C402.277 444.534 401.126 444.186 399.94 444.062V444.01Z" fill="#407BFF"/>
<path d="M403.931 445.505H403.84C402.8 445.037 400.72 443.152 400.876 442.177C400.876 441.943 401.084 441.657 401.643 441.605C401.847 441.584 402.054 441.604 402.251 441.664C402.447 441.725 402.63 441.824 402.787 441.956C403.565 442.903 404.02 444.073 404.087 445.297C404.091 445.332 404.087 445.367 404.073 445.399C404.059 445.431 404.037 445.458 404.009 445.479L403.931 445.505ZM401.812 441.995H401.682C401.318 441.995 401.292 442.177 401.292 442.229C401.188 442.814 402.592 444.296 403.671 444.933C403.566 443.946 403.167 443.013 402.527 442.255C402.325 442.09 402.073 441.999 401.812 441.995Z" fill="#407BFF"/>
<path d="M413.46 445.297H404.789L403.931 425.238H412.589L413.46 445.297Z" fill="#FF8B7B"/>
<path d="M475.912 435.742L467.293 436.678L460.793 417.191L469.412 416.255L475.912 435.742Z" fill="#FF8B7B"/>
<path d="M463.354 438.641C462.275 438.927 461.196 439.044 460.754 438.641C460.633 438.536 460.547 438.395 460.51 438.239C460.472 438.083 460.485 437.919 460.546 437.77C460.585 437.636 460.651 437.511 460.741 437.404C460.83 437.296 460.941 437.209 461.066 437.146C462.366 436.405 465.72 437.328 465.863 437.367C465.904 437.379 465.94 437.403 465.968 437.435C465.996 437.467 466.013 437.507 466.019 437.549C466.022 437.591 466.012 437.633 465.991 437.67C465.97 437.707 465.939 437.737 465.902 437.757C465.082 438.131 464.229 438.427 463.354 438.641ZM461.612 437.341C461.482 437.376 461.356 437.424 461.235 437.484C461.16 437.523 461.094 437.576 461.041 437.641C460.987 437.705 460.947 437.78 460.923 437.861C460.845 438.147 460.923 438.251 460.988 438.316C461.521 438.758 463.653 438.225 465.148 437.614C463.998 437.298 462.796 437.21 461.612 437.354V437.341Z" fill="#407BFF"/>
<path d="M465.837 437.77C465.837 437.77 465.772 437.77 465.746 437.77C464.615 437.575 462.145 436.275 462.067 435.287C462.067 435.053 462.132 434.728 462.665 434.533C462.852 434.453 463.053 434.412 463.256 434.412C463.46 434.412 463.661 434.453 463.848 434.533C465.148 435.144 465.941 437.341 465.98 437.432C466 437.463 466.01 437.499 466.01 437.536C466.01 437.573 466 437.609 465.98 437.64L465.837 437.77ZM462.925 434.884H462.795C462.457 435.014 462.47 435.157 462.47 435.209C462.47 435.794 464.251 436.873 465.447 437.237C465.112 436.305 464.493 435.5 463.679 434.936C463.443 434.825 463.174 434.806 462.925 434.884Z" fill="#407BFF"/>
<path d="M466.799 435.872L476.146 433.155C476.311 433.105 476.488 433.114 476.647 433.18C476.806 433.247 476.937 433.367 477.017 433.519L480.8 440.5C480.886 440.67 480.933 440.857 480.939 441.047C480.945 441.238 480.908 441.427 480.833 441.602C480.757 441.777 480.644 441.933 480.501 442.059C480.358 442.186 480.19 442.279 480.007 442.333C476.731 443.23 475.093 443.503 470.985 444.686C468.45 445.427 463.315 447.208 459.818 448.222C456.321 449.236 454.865 445.908 456.204 445.18C462.21 441.917 464.069 439.278 465.577 436.847C465.845 436.378 466.282 436.029 466.799 435.872Z" fill="#263238"/>
<path d="M404.841 444.296H414.305C414.479 444.295 414.647 444.354 414.782 444.463C414.917 444.572 415.01 444.724 415.046 444.894L416.762 452.59C416.799 452.78 416.793 452.976 416.744 453.163C416.696 453.351 416.606 453.525 416.481 453.673C416.357 453.822 416.2 453.94 416.024 454.02C415.848 454.101 415.656 454.14 415.462 454.137C412.043 454.072 407.116 453.877 402.826 453.877C397.808 453.877 395.026 454.15 389.189 454.15C385.627 454.15 384.652 450.549 386.134 450.25C392.92 448.768 396.846 448.612 402.709 445.05C403.333 444.6 404.073 444.339 404.841 444.296Z" fill="#263238"/>
<path d="M398.601 163.275C397.457 166.317 396.222 168.982 394.896 171.764C393.57 174.546 392.153 177.211 390.632 179.889C387.551 185.381 383.885 190.524 379.699 195.229C379.14 195.827 378.568 196.425 377.97 197.01C377.684 197.296 377.385 197.595 377.073 197.881L376.059 198.804C375.088 199.676 373.926 200.308 372.666 200.65C371.746 200.892 370.787 200.949 369.845 200.819C369.376 200.758 368.914 200.65 368.467 200.494C368.074 200.354 367.691 200.185 367.323 199.987C366.33 199.44 365.466 198.686 364.788 197.777C364.357 197.222 363.982 196.626 363.67 195.996C362.853 194.28 362.242 192.474 361.85 190.614C361.499 188.976 361.265 187.416 361.057 185.869C360.346 179.83 360.172 173.739 360.537 167.669L367.037 167.201C368.337 172.804 369.637 178.524 371.093 183.828C371.457 185.128 371.886 186.428 372.315 187.624C372.631 188.61 373.067 189.553 373.615 190.432C373.693 190.536 373.771 190.588 373.719 190.432C373.485 190.104 373.172 189.84 372.809 189.665C372.605 189.552 372.392 189.456 372.172 189.379C371.898 189.281 371.615 189.211 371.327 189.171C370.75 189.094 370.164 189.124 369.598 189.262C369.04 189.398 368.517 189.65 368.064 190.003L368.623 189.379C368.844 189.158 369.052 188.924 369.26 188.677C369.676 188.209 370.079 187.702 370.482 187.208C373.779 182.896 376.689 178.303 379.179 173.48C380.479 171.036 381.779 168.514 382.962 165.992C384.145 163.47 385.341 160.792 386.381 158.426L398.601 163.275Z" fill="#FF8B7B"/>
<path d="M439.876 149.521C448.001 151.393 456.204 175.131 456.204 175.131L439.486 187.13C439.486 187.13 434.819 176.067 430.217 166.395C425.407 156.255 431.569 147.623 439.876 149.521Z" fill="#263238"/>
<path d="M391.321 149.976C391.321 149.976 382.104 160.376 390.814 224.869H437.159C437.484 217.758 433.012 183.048 439.876 149.469C434.749 148.486 429.565 147.835 424.354 147.519C417.795 147.135 411.219 147.135 404.659 147.519C400.156 147.989 395.696 148.811 391.321 149.976Z" fill="#263238"/>
<path d="M402.8 158.751C405.712 166.551 392.4 187.195 392.4 187.195L372.614 175.3C377.653 169.559 381.978 163.23 385.497 156.45C391.906 143.112 400.46 152.472 402.8 158.751Z" fill="#263238"/>
<path d="M362.76 171.517L354.453 168.02L358.782 161.247C358.782 161.247 364.671 161.871 366.842 165.745C367.152 166.31 367.241 166.97 367.092 167.596C366.943 168.223 366.567 168.773 366.036 169.138L362.76 171.517Z" fill="#FF8B7B"/>
<path d="M347.706 162.95L354.96 158.153L358.782 161.247L354.453 168.02L347.706 162.95Z" fill="#FF8B7B"/>
<path opacity="0.2" d="M403.931 425.238L404.373 435.586H413.044L412.602 425.238H403.931Z" fill="black"/>
<path opacity="0.2" d="M469.412 416.268L460.793 417.204L464.407 428.007L472.766 426.304L469.412 416.268Z" fill="black"/>
<path d="M426.031 118.932C423.808 127.239 422.924 132.218 417.802 135.676C410.093 140.876 400.486 134.909 400.187 126.108C399.914 118.178 403.606 105.919 412.524 104.255C414.487 103.87 416.517 103.995 418.419 104.618C420.32 105.241 422.03 106.341 423.385 107.813C424.74 109.286 425.695 111.081 426.158 113.027C426.621 114.974 426.577 117.007 426.031 118.932Z" fill="#FF8B7B"/>
<path d="M431.465 114.044C432.609 114.317 434.936 114.148 437.029 109.416C439.928 102.916 427.201 104.736 427.201 104.736C427.201 104.736 438.901 99.4319 428.917 94.3359C422.417 91.0209 419.973 94.0889 419.089 96.6109C419.349 94.0109 418.712 90.5529 412.745 92.3859C403.645 95.1679 410.21 102.37 410.21 102.37C409.253 101.686 408.086 101.36 406.912 101.448C405.739 101.536 404.634 102.032 403.788 102.851C400.876 105.451 403.164 109.13 405.972 112.406C404.295 114.772 403.567 117.606 408.065 118.659C408.869 118.806 409.597 119.227 410.126 119.85C410.654 120.474 410.951 121.261 410.964 122.078C410.964 126.511 411.133 130.125 414.214 132.959C417.295 135.793 428.033 131.75 427.487 125.419C430.102 125.14 432.59 124.146 434.676 122.546C440.214 118.217 433.714 114.967 431.465 114.044Z" fill="#263238"/>
<path d="M414.188 119.075C413.301 121.02 411.798 122.619 409.911 123.625C407.415 124.925 406.011 123.027 406.583 120.531C407.09 118.282 409.001 114.902 411.562 114.629C414.123 114.356 415.215 116.722 414.188 119.075Z" fill="#FF8B7B"/>
<path d="M407.259 224.869C407.259 224.869 417.087 291.104 422.482 315.869C428.397 343.039 459.493 426.226 459.493 426.226L475.093 423.353C475.093 423.353 451.849 345.236 448.469 318.339C444.816 289.141 437.146 224.83 437.146 224.83L407.259 224.869Z" fill="#407BFF"/>
<path opacity="0.2" d="M413.473 248.464C424.9 250.7 423.6 293.106 422.3 314.92C419.011 299.502 414.214 269.836 410.938 248.776C411.724 248.39 412.617 248.281 413.473 248.464Z" fill="black"/>
<path d="M390.814 224.869C390.814 224.869 389.618 289.661 390.567 316.09C391.542 343.572 401.136 433.584 401.136 433.584H415.8C415.8 433.584 416.333 345.184 416.983 318.183C417.698 288.764 421.26 224.869 421.26 224.869H390.814Z" fill="#407BFF"/>
<path d="M455.944 421C455.879 421 458.661 426.694 458.661 426.694L476.224 423.47L474.924 418.179L455.944 421Z" fill="#263238"/>
<path d="M398.315 427.734C398.25 427.734 399.147 433.831 399.147 433.831H417.009L417.49 428.384L398.315 427.734Z" fill="#263238"/>
<path d="M251.22 444.92H260.528L260.463 423.392H251.168L251.22 444.92Z" fill="#7F3E3B"/>
<path d="M201.82 444.92H211.115L214.196 423.392H204.888L201.82 444.92Z" fill="#7F3E3B"/>
<path d="M211.7 443.854H201.3C201.12 443.849 200.944 443.912 200.807 444.03C200.67 444.147 200.582 444.312 200.559 444.491L199.337 452.746C199.313 452.955 199.334 453.167 199.398 453.367C199.461 453.568 199.566 453.752 199.706 453.909C199.846 454.066 200.018 454.192 200.209 454.278C200.401 454.365 200.609 454.41 200.819 454.41C204.472 454.345 206.227 454.124 210.816 454.124C213.65 454.124 219.487 454.423 223.387 454.423C227.287 454.423 227.521 450.523 225.896 450.211C218.616 448.651 215.756 446.48 213.299 444.426C212.856 444.043 212.286 443.839 211.7 443.854Z" fill="#263238"/>
<path d="M260.411 443.854H250.258C250.075 443.851 249.898 443.914 249.757 444.031C249.616 444.148 249.522 444.311 249.491 444.491L248.1 452.746C248.067 452.942 248.075 453.143 248.124 453.335C248.173 453.528 248.261 453.708 248.383 453.865C248.506 454.021 248.659 454.151 248.834 454.245C249.009 454.338 249.202 454.395 249.4 454.41C253.053 454.345 258.344 454.124 262.946 454.124C268.328 454.124 272.995 454.423 279.3 454.423C283.122 454.423 284.006 450.523 282.394 450.211C275.049 448.625 269.095 448.456 262.634 444.569C261.969 444.14 261.202 443.893 260.411 443.854Z" fill="#263238"/>
<path d="M253.3 150.782L266.001 146.713C266.001 146.713 277.701 178.797 281.081 182.19C285.657 186.805 292.209 199.09 295.823 205.902C295.407 207.423 293.223 210.959 291.923 211.622C282.966 205.2 271.058 192.954 268.523 187.559C262.751 175.3 253.3 150.782 253.3 150.782Z" fill="#7F3E3B"/>
<path d="M250.362 143.788C246.098 151.588 261.126 177.77 261.126 177.77L280.093 168.982C280.093 168.982 275.751 156.749 270.694 146.271C265.884 136.3 255.094 135.156 250.362 143.788Z" fill="#407BFF"/>
<path d="M295.017 204.602L304.585 210.413L297.5 220.137C294.545 217.142 292.064 213.714 290.142 209.971L295.017 204.602Z" fill="#7F3E3B"/>
<path d="M311.592 218.603L305.417 223.049L297.513 220.137L304.585 210.413L311.592 218.603Z" fill="#7F3E3B"/>
<path opacity="0.2" d="M260.463 423.392L260.489 434.494H251.194L251.155 423.392H260.463Z" fill="black"/>
<path opacity="0.2" d="M204.888 423.392H214.196L212.61 434.494H203.302L204.888 423.392Z" fill="black"/>
<path d="M262.517 138.51C262.517 138.51 274.217 170.477 265.039 222.776H215.301C214.768 215.132 218.655 174.013 210.4 138.042C215.882 136.979 221.428 136.275 227.001 135.936C234.046 135.526 241.108 135.526 248.152 135.936C252.999 136.427 257.802 137.287 262.517 138.51Z" fill="#407BFF"/>
<path d="M236.309 138.692C236.309 138.692 244.707 149.638 242.939 222.776H252.169C252.169 222.776 255.666 160.168 245.357 138.055C242.329 138.013 239.302 138.226 236.309 138.692Z" fill="white"/>
<path opacity="0.2" d="M221.424 146.921C222.399 152.836 220.878 167.006 215.639 183.321C215.384 169.298 213.892 155.325 211.18 141.565V141.5C214.443 141.214 220.501 141.37 221.424 146.921Z" fill="black"/>
<path d="M229.276 116.163C230.784 122.962 231.655 131.399 227.001 135.936C227.001 135.936 229.9 142.839 242.601 142.839C254.158 142.839 248.204 135.936 248.204 135.936C240.573 134.129 240.729 124.743 241.925 119.452L229.276 116.163Z" fill="#7F3E3B"/>
<path d="M227.001 135.351C231.139 139.058 236.17 141.625 241.6 142.8C239.377 144.308 236.517 149.716 236.517 149.716C236.517 149.716 225.779 145.621 223.673 135.845C224.7 135.624 227.001 135.351 227.001 135.351Z" fill="#407BFF"/>
<path opacity="0.3" d="M227.001 135.351C231.139 139.058 236.17 141.625 241.6 142.8C239.377 144.308 236.517 149.716 236.517 149.716C236.517 149.716 225.779 145.621 223.673 135.845C224.7 135.624 227.001 135.351 227.001 135.351Z" fill="black"/>
<path d="M247.177 135.091C247.177 135.091 250.128 141.292 244.72 142.735C247.407 144.088 249.66 146.169 251.22 148.741C251.22 148.741 255.042 141.11 250.453 135.611C249.465 135.364 247.177 135.091 247.177 135.091Z" fill="#407BFF"/>
<path opacity="0.3" d="M247.177 135.091C247.177 135.091 250.128 141.292 244.72 142.735C247.407 144.088 249.66 146.169 251.22 148.741C251.22 148.741 255.042 141.11 250.453 135.611C249.465 135.364 247.177 135.091 247.177 135.091Z" fill="black"/>
<path opacity="0.2" d="M241.886 119.465C240.946 123.144 241.059 127.014 242.211 130.632C241.131 131.146 239.923 131.327 238.74 131.152C235.958 130.593 234.281 129.319 231.967 124.652C231.772 123.456 229.536 117.359 229.289 116.215L241.886 119.465Z" fill="black"/>
<path d="M252.065 109.195C252.186 110.327 252.078 111.473 251.748 112.563C251.417 113.653 250.871 114.665 250.141 115.539C248.178 117.853 245.422 116.488 244.499 113.719C243.654 111.236 243.667 107.024 246.358 105.724C246.957 105.449 247.615 105.325 248.273 105.363C248.931 105.401 249.57 105.601 250.134 105.943C250.697 106.286 251.168 106.762 251.505 107.329C251.841 107.895 252.034 108.536 252.065 109.195Z" fill="#7F3E3B"/>
<path opacity="0.2" d="M252.065 109.195C252.186 110.327 252.078 111.473 251.748 112.563C251.417 113.653 250.871 114.665 250.141 115.539C248.178 117.853 245.422 116.488 244.499 113.719C243.654 111.236 243.667 107.024 246.358 105.724C246.957 105.449 247.615 105.325 248.273 105.363C248.931 105.401 249.57 105.601 250.134 105.943C250.697 106.286 251.168 106.762 251.505 107.329C251.841 107.895 252.034 108.536 252.065 109.195Z" fill="black"/>
<path d="M223.023 108.857C226.819 117.359 227.378 122.13 232.981 125.757C241.418 131.256 251.467 124.717 251.454 115.227C251.454 106.699 247.034 93.699 237.466 91.827C227.001 89.864 218.2 98.002 223.023 108.857Z" fill="#7F3E3B"/>
<path d="M221.58 116.8C222.992 118.508 224.923 119.708 227.079 120.219C229.679 120.765 230.134 118.23 228.626 115.734C227.261 113.485 224.856 109.117 221.957 111.093C220.033 112.458 219.721 114.668 221.58 116.8Z" fill="#7F3E3B"/>
<path d="M252.286 115.279C252.572 121.025 258.318 128.279 248.009 129.93C242.628 130.778 237.124 129.596 232.565 126.615C228.054 123.82 226.715 115.942 223.218 110.664C223.062 110.469 223.14 110.235 223.322 110.001C223.533 109.761 223.798 109.576 224.095 109.461C224.392 109.346 224.713 109.305 225.03 109.341C225.346 109.376 225.65 109.488 225.914 109.667C226.178 109.845 226.395 110.085 226.546 110.365C227.716 112.406 229.9 115.383 232.838 115.565C237.336 115.916 252 109.403 252.286 115.279Z" fill="#263238"/>
<path d="M232.344 222.776C232.344 222.776 233.644 234.476 235.165 250.323C236.985 268.276 239.234 291.598 240.664 309.369C240.657 309.447 240.657 309.525 240.664 309.603C240.937 312.983 241.171 316.103 241.379 319.041C243.394 348.018 248.087 432.349 248.087 432.349H263.843C263.843 432.349 269.953 346.289 269.667 316.792C269.407 288.4 265 222.776 265 222.776H232.344Z" fill="#263238"/>
<path d="M246.8 426.811C246.722 426.811 247.034 432.674 247.034 432.674H265.234L265.728 426.083L246.8 426.811Z" fill="#407BFF"/>
<path opacity="0.2" d="M235.165 250.323C236.985 268.276 239.234 291.598 240.664 309.369C240.657 309.447 240.657 309.525 240.664 309.603C244.161 292.768 247.359 277.428 243.927 252.403L235.165 250.323Z" fill="black"/>
<path d="M247.385 222.776C247.385 222.776 241.964 289.973 238.155 316.597C233.982 345.756 216.783 432.297 216.783 432.297H199.74C199.74 432.297 208.983 348.057 210.452 319.197C212.051 287.867 215.288 222.737 215.288 222.737L247.385 222.776Z" fill="#263238"/>
<path d="M199.259 426.629C199.194 426.629 198.921 432.674 198.921 432.674H217.641L218.941 426.447L199.259 426.629Z" fill="#407BFF"/>
<path d="M237.7 107.453C237.882 108.181 238.402 108.753 238.883 108.597C239.364 108.441 239.598 107.804 239.429 107.076C239.26 106.348 238.727 105.776 238.246 105.932C237.765 106.088 237.531 106.712 237.7 107.453Z" fill="#263238"/>
<path d="M245.916 105.659C246.098 106.4 246.618 106.959 247.099 106.803C247.58 106.647 247.814 106.023 247.645 105.282C247.476 104.541 246.943 103.982 246.462 104.138C245.981 104.294 245.747 104.918 245.916 105.659Z" fill="#263238"/>
<path d="M243.394 106.595C244.795 108.654 246.466 110.516 248.36 112.133C247.947 112.601 247.436 112.97 246.862 113.215C246.289 113.46 245.668 113.575 245.045 113.55L243.394 106.595Z" fill="#630F0F"/>
<path d="M243.42 118.581C243.448 118.574 243.475 118.56 243.498 118.543C243.521 118.525 243.541 118.503 243.555 118.477C243.57 118.452 243.579 118.424 243.583 118.395C243.586 118.366 243.584 118.336 243.576 118.308C243.558 118.253 243.52 118.206 243.47 118.177C243.419 118.149 243.36 118.139 243.303 118.152C242.398 118.394 241.449 118.42 240.533 118.228C239.616 118.036 238.757 117.632 238.025 117.047C238.006 117.027 237.983 117.011 237.957 117C237.931 116.989 237.904 116.984 237.876 116.984C237.848 116.984 237.82 116.989 237.794 117C237.769 117.011 237.746 117.027 237.726 117.047C237.704 117.067 237.686 117.091 237.674 117.117C237.662 117.144 237.656 117.174 237.656 117.203C237.656 117.233 237.662 117.262 237.674 117.289C237.686 117.316 237.704 117.34 237.726 117.359C238.509 118.003 239.434 118.449 240.425 118.662C241.415 118.875 242.442 118.847 243.42 118.581Z" fill="#7F3E3B"/>
<path d="M234.593 105.308C234.659 105.292 234.72 105.262 234.771 105.219C234.823 105.176 234.865 105.122 234.892 105.061C235.095 104.552 235.419 104.1 235.835 103.744C236.252 103.389 236.75 103.14 237.284 103.02C237.347 103.017 237.409 103.001 237.465 102.973C237.522 102.944 237.571 102.904 237.61 102.855C237.65 102.805 237.678 102.748 237.694 102.687C237.709 102.626 237.712 102.562 237.7 102.5C237.681 102.384 237.617 102.28 237.523 102.209C237.428 102.139 237.31 102.108 237.193 102.123C236.506 102.263 235.865 102.574 235.331 103.029C234.796 103.484 234.386 104.067 234.138 104.723C234.093 104.83 234.091 104.951 234.132 105.06C234.173 105.168 234.255 105.257 234.359 105.308C234.436 105.325 234.516 105.325 234.593 105.308Z" fill="#263238"/>
<path d="M248.919 101.915C248.981 101.89 249.038 101.855 249.088 101.811C249.171 101.728 249.217 101.616 249.217 101.499C249.217 101.382 249.171 101.27 249.088 101.187C248.632 100.654 248.056 100.238 247.407 99.971C246.759 99.7043 246.056 99.5953 245.357 99.6529C245.242 99.6721 245.138 99.7362 245.07 99.8312C245.002 99.9262 244.974 100.044 244.993 100.16C245.015 100.275 245.079 100.377 245.173 100.447C245.267 100.517 245.384 100.549 245.5 100.537C246.055 100.494 246.611 100.584 247.124 100.799C247.637 101.013 248.092 101.347 248.451 101.772C248.508 101.837 248.582 101.884 248.665 101.909C248.747 101.935 248.835 101.937 248.919 101.915Z" fill="#263238"/>
<path d="M205.018 150.21L217.355 155.917C217.355 155.917 205.46 186.233 207.488 190.51C210.257 196.347 212.428 209.308 216.939 215.574C216.705 217.095 214.885 220.774 213.676 221.541C203.809 216.224 194.072 196.841 193.539 191.017C192.317 177.744 205.018 150.21 205.018 150.21Z" fill="#7F3E3B"/>
<path d="M210.4 138.042C201.638 139.342 192.304 169.801 192.304 169.801L213.637 179.2C213.637 179.2 218.837 165.745 222.581 154.968C226.507 143.697 219.812 136.664 210.4 138.042Z" fill="#407BFF"/>
<path d="M214.898 445.479C215.521 445.528 216.142 445.358 216.653 444.998C216.81 444.854 216.927 444.671 216.991 444.468C217.054 444.265 217.064 444.049 217.017 443.841C217.012 443.709 216.971 443.58 216.897 443.47C216.824 443.36 216.721 443.272 216.601 443.217C215.535 442.684 212.701 444.517 212.35 444.738C212.315 444.762 212.288 444.796 212.272 444.835C212.256 444.874 212.251 444.917 212.259 444.959C212.271 445.002 212.294 445.042 212.326 445.074C212.358 445.106 212.397 445.129 212.441 445.141C213.245 445.344 214.069 445.457 214.898 445.479ZM216.133 443.555C216.231 443.533 216.334 443.533 216.432 443.555C216.478 443.581 216.516 443.619 216.544 443.665C216.571 443.71 216.586 443.762 216.588 443.815C216.617 443.957 216.61 444.105 216.567 444.243C216.524 444.382 216.446 444.507 216.341 444.608C215.309 445.094 214.128 445.155 213.052 444.777C213.985 444.164 215.034 443.748 216.133 443.555Z" fill="#407BFF"/>
<path d="M212.493 445.141C212.527 445.153 212.564 445.153 212.597 445.141C213.52 444.621 215.197 442.541 214.95 441.553C214.908 441.388 214.812 441.241 214.678 441.136C214.545 441.03 214.38 440.971 214.209 440.968C214.044 440.945 213.876 440.959 213.716 441.009C213.557 441.058 213.41 441.142 213.286 441.254C212.272 442.138 212.259 444.816 212.259 444.933C212.26 444.975 212.271 445.016 212.291 445.052C212.311 445.088 212.341 445.119 212.376 445.141H212.493ZM214.092 441.371H214.183C214.482 441.371 214.508 441.54 214.521 441.592C214.69 442.203 213.624 443.75 212.714 444.465C212.699 443.426 213.008 442.408 213.598 441.553C213.734 441.432 213.91 441.367 214.092 441.371Z" fill="#407BFF"/>
<path d="M264.35 445.479C265.139 445.553 265.929 445.351 266.586 444.907C266.732 444.772 266.841 444.602 266.905 444.414C266.968 444.225 266.984 444.024 266.95 443.828C266.938 443.706 266.897 443.588 266.829 443.486C266.761 443.384 266.668 443.301 266.56 443.243C265.403 442.606 261.75 444.543 261.36 444.725C261.322 444.75 261.292 444.785 261.273 444.827C261.255 444.868 261.249 444.914 261.256 444.959C261.263 445.005 261.285 445.047 261.318 445.079C261.35 445.112 261.392 445.134 261.438 445.141C262.396 445.342 263.371 445.456 264.35 445.479ZM265.949 443.555C266.092 443.549 266.234 443.576 266.365 443.633C266.407 443.656 266.443 443.69 266.468 443.731C266.493 443.772 266.507 443.819 266.508 443.867C266.534 443.994 266.526 444.126 266.485 444.249C266.444 444.373 266.371 444.483 266.274 444.569C265.728 445.089 264.207 445.167 262.14 444.829C263.326 444.185 264.615 443.754 265.949 443.555Z" fill="#407BFF"/>
<path d="M261.464 445.141H261.542C262.647 444.634 264.779 442.632 264.558 441.579C264.558 441.332 264.324 441.02 263.713 440.955C263.497 440.932 263.278 440.954 263.07 441.019C262.862 441.084 262.669 441.19 262.504 441.332C261.373 442.307 261.204 444.816 261.204 444.92C261.204 444.959 261.213 444.997 261.232 445.031C261.25 445.065 261.276 445.094 261.308 445.115C261.355 445.143 261.411 445.152 261.464 445.141ZM263.557 441.371H263.687C264.09 441.371 264.116 441.566 264.129 441.618C264.259 442.255 262.829 443.828 261.711 444.517C261.759 443.471 262.141 442.468 262.803 441.657C263.009 441.47 263.279 441.368 263.557 441.371Z" fill="#407BFF"/>
<path d="M215.834 215.405L224.609 216.705L218.109 225.272C218.109 225.272 210.478 223.894 210.374 217.797L215.834 215.405Z" fill="#7F3E3B"/>
<path d="M230.745 222.659L224.505 230.108L218.135 225.259L224.609 216.692L230.745 222.659Z" fill="#7F3E3B"/>
<path d="M132.634 145.114C132.634 145.114 124.184 141.5 117.411 145.829C110.638 150.158 116.202 150.925 108.766 154.318C101.33 157.711 109.637 162.339 108.766 166.707C107.726 171.907 99.0033 174.143 103.93 180.214C108.857 186.285 145.959 189.392 150.002 181.839C154.045 174.286 144.802 174.338 147.051 167.916C149.3 161.494 150.457 157.36 144.23 153.343C138.003 149.326 139.68 142.15 132.634 145.114Z" fill="#263238"/>
<path d="M158.621 200C158.985 202.106 159.44 204.498 159.921 206.734C160.402 208.97 160.961 211.284 161.598 213.52C162.831 217.988 164.346 222.374 166.135 226.65C166.564 227.729 167.071 228.743 167.539 229.783L167.669 230.069V230.16C167.669 230.16 167.669 230.16 167.604 230.16C167.37 229.99 167.087 229.904 166.798 229.913C166.577 229.913 166.642 230.017 166.863 229.913C167.185 229.814 167.495 229.678 167.786 229.51C168.636 229.014 169.436 228.44 170.178 227.794C173.604 224.691 176.766 221.308 179.629 217.68L183.529 220.059C181.353 224.7 178.559 229.025 175.222 232.916C174.259 234.001 173.187 234.986 172.024 235.854C171.313 236.365 170.55 236.801 169.749 237.154C168.655 237.644 167.463 237.875 166.265 237.83C164.763 237.75 163.33 237.169 162.196 236.179C161.713 235.764 161.278 235.298 160.896 234.788C160.727 234.554 160.584 234.333 160.454 234.112C160.324 233.891 160.233 233.722 160.155 233.579C159.557 232.448 158.855 231.33 158.374 230.186C156.14 225.628 154.288 220.893 152.836 216.029C152.095 213.624 151.419 211.193 150.873 208.736C150.327 206.279 149.82 203.874 149.469 201.196L158.621 200Z" fill="#FFB573"/>
<path d="M155.072 189.86C158.829 190.562 162.365 205.59 162.365 205.59L152.628 213.143C152.628 213.143 141.916 198.44 144.503 194.202C147.09 189.964 149.599 188.833 155.072 189.86Z" fill="#263238"/>
<path opacity="0.2" d="M154.955 193.266L158.751 208.398L153.278 212.636L154.955 193.266Z" fill="black"/>
<path d="M183.321 215.457L190.64 214.222L186.363 222.269C186.363 222.269 180.604 222.36 178.797 219.097L179.226 218.33C179.655 217.579 180.244 216.932 180.952 216.435C181.66 215.938 182.469 215.604 183.321 215.457Z" fill="#FFB573"/>
<path d="M196.958 216.38L194.423 223.608L186.363 222.269L190.64 214.222L196.958 216.38Z" fill="#FFB573"/>
<path d="M172.973 445.557L181.631 443.178L176.717 422.989L168.059 425.368L172.973 445.557Z" fill="#FFB573"/>
<path d="M181.631 441.657L171.959 444.465C171.791 444.511 171.645 444.617 171.549 444.763C171.453 444.909 171.414 445.085 171.439 445.258L172.557 453.227C172.593 453.427 172.67 453.618 172.784 453.786C172.899 453.954 173.047 454.096 173.22 454.203C173.393 454.31 173.587 454.379 173.789 454.406C173.99 454.432 174.195 454.416 174.39 454.358C177.744 453.318 179.317 452.655 183.568 451.42C186.168 450.653 193.786 448.742 197.4 447.689C201.014 446.636 200.169 443.009 198.57 443.126C191.394 443.633 186.051 443.022 183.23 441.826C182.734 441.583 182.167 441.523 181.631 441.657Z" fill="#263238"/>
<g opacity="0.2">
<path d="M176.717 423.002L179.239 433.402L170.594 435.781L168.059 425.368L176.717 423.002Z" fill="black"/>
</g>
<path d="M155.072 189.86C155.072 189.86 159.44 191.16 154.201 244.161L117.801 246.449C117.489 231.616 116.93 222.49 107.947 192.564C112.986 191.205 118.117 190.215 123.3 189.6C128.772 188.861 134.289 188.513 139.81 188.56C146.934 188.716 155.072 189.86 155.072 189.86Z" fill="#407BFF"/>
<g opacity="0.4">
<path d="M155.072 189.86C155.072 189.86 159.44 191.16 154.201 244.161L117.801 246.449C117.489 231.616 116.93 222.49 107.947 192.564C112.986 191.205 118.117 190.215 123.3 189.6C128.772 188.861 134.289 188.513 139.81 188.56C146.934 188.716 155.072 189.86 155.072 189.86Z" fill="#263238"/>
</g>
<path d="M123.755 170.867C125.133 176.067 126.784 185.778 123.287 189.561C123.287 189.561 125.081 194.852 134.987 194.241C145.842 193.552 139.836 188.521 139.836 188.521C133.83 187.481 133.7 183.074 134.467 178.888L123.755 170.867Z" fill="#FFB573"/>
<path d="M123.3 189.6C128.768 188.861 134.281 188.513 139.797 188.56H140.889C142.358 190.978 142.943 194.8 140.135 200.624C140.135 200.624 125.289 195.71 121.129 189.847L123.3 189.6Z" fill="#FFB573"/>
<path opacity="0.2" d="M128.11 174.143L134.428 178.875C134.238 179.852 134.13 180.844 134.103 181.839C131.828 181.657 128.227 179.499 127.837 177.146C127.615 176.141 127.71 175.092 128.11 174.143Z" fill="black"/>
<path d="M117.45 162.027C120.05 170.542 120.921 174.208 126.342 177.627C134.48 182.762 144.386 177.744 144.412 168.618C144.412 160.415 140.226 147.818 130.957 146.414C128.915 146.084 126.822 146.281 124.877 146.988C122.932 147.695 121.201 148.887 119.847 150.452C118.494 152.017 117.563 153.902 117.143 155.928C116.724 157.954 116.829 160.053 117.45 162.027Z" fill="#FFB573"/>
<path d="M132.608 145.907C133.687 150.028 123.859 164.536 118.373 168.514C113.173 162.807 113.459 155.436 115.708 151.679C117.957 147.922 123.3 143.879 132.608 145.907Z" fill="#263238"/>
<path d="M133.31 146.037C137.665 147.272 142.228 152.433 139.81 152.225C137.392 152.017 126.888 147.363 133.31 146.037Z" fill="#263238"/>
<path d="M154.201 244.2C154.201 244.2 164.419 309.525 167.89 336.656C171.491 364.892 180.357 430.516 180.357 430.516L168.657 433.896C168.657 433.896 151.276 369.585 146.076 342.103C140.421 312.203 127.525 245.903 127.525 245.903L154.201 244.2Z" fill="#407BFF"/>
<g opacity="0.2">
<path d="M154.201 244.2C154.201 244.2 164.419 309.525 167.89 336.656C171.491 364.892 180.357 430.516 180.357 430.516L168.657 433.896C168.657 433.896 151.276 369.585 146.076 342.103C140.421 312.203 127.525 245.903 127.525 245.903L154.201 244.2Z" fill="black"/>
</g>
<path d="M167.812 434.572L181.475 430.594L181.215 425.953L165.758 429.866L167.812 434.572Z" fill="#263238"/>
<path d="M146.505 441.696L155.137 444.101L157.451 425.251H148.481L146.505 441.696Z" fill="#FFB573"/>
<path opacity="0.2" d="M147.35 434.624L156.073 436.522L157.451 425.251H148.481L147.35 434.624Z" fill="black"/>
<path d="M155.527 443.23L145.647 440.513C145.475 440.467 145.293 440.478 145.128 440.546C144.963 440.615 144.826 440.736 144.737 440.89L141.695 448.105C141.603 448.283 141.552 448.48 141.549 448.68C141.545 448.881 141.587 449.079 141.673 449.26C141.758 449.442 141.885 449.601 142.042 449.725C142.199 449.849 142.383 449.936 142.579 449.977C146.05 450.861 147.025 451.004 151.38 452.2C154.045 452.928 160.402 456.022 167.292 456.022C170.971 456.022 170.581 452.122 169.034 451.797C162.105 450.289 158.478 446.597 156.814 444.14C156.506 443.695 156.05 443.373 155.527 443.23Z" fill="#263238"/>
<path d="M145.933 244.655C145.933 244.655 180.929 319.405 177.848 342.844C174.091 371.379 158.036 431.491 158.036 431.491L145.803 429.073C145.803 429.073 152.303 368.727 154.825 340.777C157.607 310.318 119.907 286.684 117.528 246.475L145.933 244.655Z" fill="#407BFF"/>
<path d="M144.633 431.894L158.92 435.04L160.285 430.165L144.867 426.733L144.633 431.894Z" fill="#263238"/>
<path d="M158.465 445.583C159.208 445.859 160.02 445.887 160.779 445.661C160.967 445.588 161.135 445.473 161.27 445.324C161.406 445.175 161.505 444.997 161.559 444.803C161.602 444.698 161.613 444.582 161.589 444.471C161.566 444.36 161.511 444.258 161.429 444.179C160.61 443.321 156.45 444.062 155.982 444.179C155.937 444.19 155.895 444.213 155.861 444.245C155.827 444.276 155.802 444.316 155.787 444.361C155.777 444.401 155.78 444.443 155.797 444.481C155.813 444.519 155.842 444.55 155.878 444.569C156.705 444.993 157.571 445.332 158.465 445.583ZM160.74 444.283C160.869 444.31 160.99 444.368 161.091 444.452C161.114 444.492 161.126 444.536 161.126 444.582C161.126 444.628 161.114 444.672 161.091 444.712C161.054 444.837 160.989 444.952 160.902 445.049C160.814 445.146 160.705 445.222 160.584 445.271C159.869 445.583 158.413 445.271 156.619 444.426C157.977 444.158 159.369 444.114 160.74 444.296V444.283Z" fill="#407BFF"/>
<path d="M155.917 444.543H156.008C157.23 444.374 160.025 443.152 160.272 442.164C160.272 441.93 160.272 441.605 159.739 441.384C159.322 441.219 158.857 441.219 158.439 441.384C157.32 442.067 156.418 443.054 155.839 444.231C155.82 444.262 155.809 444.298 155.809 444.335C155.809 444.372 155.82 444.408 155.839 444.439L155.917 444.543ZM159.401 441.748H159.531C159.882 441.891 159.843 442.034 159.83 442.086C159.687 442.684 157.711 443.711 156.398 444.023C156.903 443.077 157.664 442.293 158.595 441.761C158.861 441.688 159.143 441.702 159.401 441.8V441.748Z" fill="#407BFF"/>
<path d="M131.776 161.065C131.945 161.78 132.452 162.261 132.907 162.144C133.362 162.027 133.609 161.377 133.44 160.675C133.271 159.973 132.777 159.492 132.309 159.596C131.841 159.7 131.607 160.363 131.776 161.065Z" fill="#263238"/>
<path d="M139.732 159.193C139.901 159.895 140.408 160.376 140.876 160.272C141.344 160.168 141.565 159.505 141.409 158.803C141.253 158.101 140.733 157.607 140.265 157.724C139.797 157.841 139.576 158.491 139.732 159.193Z" fill="#263238"/>
<path d="M140.083 157.815L141.656 156.918C141.656 156.918 141.097 158.4 140.083 157.815Z" fill="#263238"/>
<path d="M137.6 161C138.603 162.457 139.801 163.77 141.162 164.9C140.866 165.242 140.498 165.516 140.085 165.7C139.672 165.884 139.223 165.975 138.77 165.966L137.6 161Z" fill="#ED893E"/>
<path d="M135.559 169.671C135.918 169.644 136.275 169.587 136.625 169.502C136.679 169.487 136.726 169.451 136.755 169.403C136.784 169.355 136.793 169.297 136.781 169.242C136.766 169.188 136.73 169.141 136.682 169.112C136.634 169.083 136.576 169.074 136.521 169.086C135.651 169.312 134.739 169.33 133.86 169.138C132.982 168.946 132.161 168.55 131.464 167.981C131.423 167.944 131.37 167.923 131.315 167.923C131.259 167.923 131.206 167.944 131.165 167.981C131.124 168.023 131.101 168.079 131.101 168.137C131.101 168.196 131.124 168.252 131.165 168.293C132.39 169.315 133.97 169.811 135.559 169.671Z" fill="#263238"/>
<path d="M116.969 170.503C117.928 171.933 119.415 172.924 121.103 173.259C123.352 173.688 124.275 171.647 123.495 169.632C122.793 167.812 120.778 165.407 118.607 165.888C118.135 166.002 117.698 166.233 117.337 166.558C116.976 166.884 116.702 167.294 116.54 167.752C116.377 168.21 116.331 168.702 116.406 169.182C116.481 169.662 116.675 170.116 116.969 170.503Z" fill="#FFB573"/>
<path d="M128.201 160.207C128.291 160.201 128.376 160.166 128.444 160.107C128.512 160.049 128.559 159.97 128.578 159.882C128.828 159.234 129.209 158.645 129.696 158.151C130.184 157.656 130.768 157.268 131.412 157.009C131.518 156.966 131.601 156.883 131.645 156.778C131.689 156.673 131.689 156.555 131.646 156.45C131.626 156.399 131.596 156.351 131.558 156.312C131.519 156.272 131.473 156.24 131.423 156.218C131.372 156.197 131.317 156.185 131.262 156.185C131.206 156.184 131.152 156.195 131.1 156.216C130.328 156.519 129.63 156.985 129.054 157.582C128.477 158.178 128.036 158.892 127.759 159.674C127.744 159.729 127.74 159.786 127.747 159.842C127.755 159.899 127.774 159.953 127.803 160.002C127.832 160.05 127.871 160.093 127.917 160.126C127.963 160.159 128.016 160.182 128.071 160.194L128.201 160.207Z" fill="#263238"/>
<path d="M141.266 154.955C141.339 154.946 141.408 154.92 141.469 154.88C141.53 154.839 141.581 154.785 141.617 154.721C141.663 154.619 141.669 154.503 141.633 154.396C141.596 154.29 141.521 154.202 141.422 154.149C140.821 153.833 140.151 153.669 139.472 153.669C138.793 153.669 138.124 153.833 137.522 154.149C137.475 154.177 137.434 154.214 137.401 154.258C137.369 154.302 137.345 154.352 137.332 154.405C137.318 154.458 137.316 154.514 137.324 154.568C137.332 154.622 137.351 154.674 137.379 154.721C137.436 154.819 137.53 154.891 137.639 154.92C137.749 154.949 137.866 154.934 137.964 154.877C138.439 154.635 138.965 154.509 139.498 154.509C140.031 154.509 140.557 154.635 141.032 154.877C141.104 154.919 141.184 154.945 141.266 154.955Z" fill="#263238"/>
<path d="M113.511 204.693C112.718 209.451 111.938 214.326 111.21 219.149C110.482 223.972 109.832 228.808 109.455 233.592L109.325 235.308C109.289 235.684 109.289 236.063 109.325 236.439C109.464 237.49 109.663 238.532 109.923 239.559C110.495 241.756 111.223 244.044 112.016 246.319C113.563 250.895 115.396 255.484 117.216 260.06L113.212 262.192C110.407 257.964 107.867 253.566 105.607 249.023C104.443 246.688 103.414 244.288 102.526 241.834C102.038 240.496 101.652 239.122 101.369 237.726C101.198 236.87 101.111 235.999 101.109 235.126V233.137C101.239 228.006 101.608 222.941 102.214 217.94C102.786 212.922 103.514 207.982 104.489 202.977L113.511 204.693Z" fill="#FFB573"/>
<path d="M107.986 192.564C104.411 193.864 100.823 206.721 100.823 206.721L115.591 215.938C115.591 215.938 120.089 205.135 118.256 200.533C116.358 195.723 112.055 191.043 107.986 192.564Z" fill="#263238"/>
<path d="M185.31 442.216C186.061 442.067 186.739 441.668 187.234 441.085C187.335 440.921 187.396 440.735 187.412 440.543C187.428 440.351 187.398 440.158 187.325 439.98C187.283 439.87 187.215 439.773 187.127 439.696C187.038 439.619 186.932 439.564 186.818 439.538C185.596 439.265 182.671 442.021 182.333 442.333C182.309 442.37 182.295 442.413 182.295 442.457C182.295 442.501 182.309 442.544 182.333 442.58C182.35 442.62 182.38 442.653 182.417 442.674C182.455 442.695 182.498 442.703 182.541 442.697C183.478 442.628 184.405 442.467 185.31 442.216ZM186.324 439.993C186.457 439.962 186.595 439.962 186.727 439.993C186.772 440.004 186.814 440.027 186.848 440.059C186.883 440.09 186.908 440.131 186.922 440.175C186.98 440.288 187.011 440.412 187.011 440.539C187.011 440.666 186.98 440.79 186.922 440.903C186.532 441.527 185.141 442.021 183.139 442.203C184.067 441.29 185.144 440.543 186.324 439.993Z" fill="#407BFF"/>
<path d="M182.541 442.697C182.541 442.697 182.606 442.697 182.619 442.697C183.516 441.943 185.011 439.499 184.569 438.563C184.465 438.342 184.218 438.108 183.633 438.212C183.425 438.248 183.226 438.327 183.049 438.444C182.873 438.56 182.722 438.711 182.606 438.888C182.108 440.053 181.994 441.346 182.281 442.58C182.287 442.617 182.302 442.652 182.324 442.681C182.347 442.711 182.377 442.734 182.411 442.749L182.541 442.697ZM183.581 438.602H183.711C184.088 438.602 184.153 438.68 184.179 438.719C184.452 439.278 183.49 441.137 182.632 442.073C182.422 441.071 182.536 440.029 182.957 439.096C183.097 438.86 183.319 438.685 183.581 438.602Z" fill="#407BFF"/>
<path d="M132.114 159.7L133.7 158.816C133.7 158.816 133.141 160.324 132.114 159.7Z" fill="#263238"/>
<path d="M117.164 244.343L116.449 247.658C116.332 247.918 116.644 248.165 117.073 248.139L154.5 245.773C154.825 245.773 155.085 245.578 155.098 245.37L155.215 242.094C155.215 241.873 154.929 241.691 154.565 241.717L117.749 244.044C117.634 244.041 117.521 244.067 117.419 244.119C117.317 244.172 117.229 244.248 117.164 244.343Z" fill="#263238"/>
<path d="M122.377 248.1H121.389C121.194 248.1 121.038 248.022 121.038 247.892L121.233 243.641C121.233 243.511 121.402 243.407 121.597 243.394L122.585 243.329C122.78 243.329 122.936 243.407 122.936 243.537L122.741 247.788C122.728 248.1 122.572 248.1 122.377 248.1Z" fill="#407BFF"/>
<path d="M151.731 246.306H150.756C150.548 246.306 150.392 246.215 150.405 246.098L150.6 241.834C150.6 241.717 150.769 241.6 150.964 241.587H151.952C152.147 241.587 152.303 241.665 152.303 241.782L152.108 246.046C152.095 246.176 151.9 246.293 151.731 246.306Z" fill="#407BFF"/>
<path d="M137.054 247.229L136.066 247.294C135.871 247.294 135.715 247.216 135.715 247.086L135.923 242.835C135.923 242.705 136.092 242.588 136.287 242.575H137.275C137.47 242.575 137.626 242.653 137.613 242.77L137.418 247.034C137.418 247.099 137.249 247.216 137.054 247.229Z" fill="#407BFF"/>
<path d="M116.982 259.189L124.353 265.481L115.344 266.963C115.344 266.963 111.795 262.439 113.29 259.02L116.982 259.189Z" fill="#FFB573"/>
<path d="M125.848 272.878L118.243 273.71L115.344 266.963L124.353 265.481L125.848 272.878Z" fill="#FFB573"/>
<path d="M322.707 129.501C358.462 129.501 387.447 100.516 387.447 64.761C387.447 29.0061 358.462 0.0209961 322.707 0.0209961C286.952 0.0209961 257.967 29.0061 257.967 64.761C257.967 100.516 286.952 129.501 322.707 129.501Z" fill="#407BFF"/>
<path d="M191.797 39.0339L190.939 38.0589C196.175 33.3904 202.943 30.8087 209.958 30.8049V32.1049C203.259 32.1082 196.796 34.5744 191.797 39.0339Z" fill="#407BFF"/>
<path d="M184.4 49.837L183.178 49.382C183.944 47.3415 184.943 45.396 186.155 43.584L187.234 44.312C186.085 46.0417 185.134 47.895 184.4 49.837Z" fill="#407BFF"/>
<path d="M226.986 76.4491C236.388 67.0468 236.388 51.8028 226.986 42.4005C217.584 32.9983 202.34 32.9982 192.937 42.4005C183.535 51.8028 183.535 67.0468 192.937 76.4491C202.34 85.8514 217.584 85.8514 226.986 76.4491Z" fill="#407BFF"/>
<path d="M161.546 122.429C169.702 122.429 176.314 115.817 176.314 107.661C176.314 99.5049 169.702 92.8931 161.546 92.8931C153.39 92.8931 146.778 99.5049 146.778 107.661C146.778 115.817 153.39 122.429 161.546 122.429Z" fill="#407BFF"/>
<path d="M421.832 76.7991C428.301 76.7991 433.545 71.555 433.545 65.0861C433.545 58.6171 428.301 53.373 421.832 53.373C415.363 53.373 410.119 58.6171 410.119 65.0861C410.119 71.555 415.363 76.7991 421.832 76.7991Z" fill="#407BFF"/>
<path d="M357.157 53.5289C357.161 47.3344 355.495 41.2533 352.335 35.9258C349.174 30.5984 344.635 26.2218 339.196 23.2568C333.757 20.2918 327.62 18.8482 321.429 19.0779C315.239 19.3076 309.225 21.2022 304.021 24.5621C298.817 27.9221 294.615 32.6231 291.858 38.1701C289.1 43.7172 287.89 49.905 288.353 56.0822C288.817 62.2594 290.938 68.1973 294.492 73.2707C298.046 78.3441 302.903 82.3653 308.55 84.9109V91.0079H336.864V84.9109C342.909 82.1895 348.04 77.7804 351.64 72.2134C355.24 66.6465 357.155 60.1584 357.157 53.5289Z" fill="white"/>
<path opacity="0.2" d="M334.42 107.661H310.994L308.55 91.0081H336.864L334.42 107.661Z" fill="black"/>
<path opacity="0.4" d="M328.492 110.43H316.922L315.726 107.661H329.688L328.492 110.43Z" fill="black"/>
<path d="M319.028 61.3811C318.23 59.0717 316.893 56.9859 315.128 55.2971C311.059 51.2411 306.028 49.8761 303.753 52.1901C302.583 53.3601 302.31 55.2451 302.999 57.4811C303.796 59.7868 305.133 61.8683 306.899 63.5521C309.616 66.2821 312.762 67.7901 315.245 67.7901C315.821 67.7967 316.393 67.6999 316.935 67.5041L319.236 91.0861C319.255 91.2999 319.354 91.4986 319.513 91.643C319.672 91.7874 319.879 91.867 320.094 91.8661H320.172C320.286 91.8564 320.397 91.8239 320.498 91.7707C320.599 91.7174 320.689 91.6444 320.762 91.556C320.834 91.4676 320.889 91.3655 320.921 91.2558C320.954 91.146 320.964 91.0309 320.952 90.9171L318.547 66.3341C319.025 65.6104 319.318 64.7807 319.402 63.9174C319.486 63.054 319.358 62.1833 319.028 61.3811ZM308.121 62.3301C306.569 60.8389 305.389 59.0044 304.676 56.9741C304.414 56.4007 304.308 55.7688 304.367 55.1415C304.427 54.5141 304.649 53.9133 305.014 53.3991C305.263 53.1795 305.553 53.0113 305.868 52.9042C306.182 52.7971 306.515 52.7532 306.847 52.7751C308.706 52.7751 311.41 53.9841 313.945 56.5191C315.502 58.0056 316.683 59.8416 317.39 61.8751C317.654 62.4479 317.761 63.0803 317.702 63.7081C317.643 64.336 317.418 64.937 317.052 65.4501C315.7 66.8541 311.8 65.9311 308.121 62.3301Z" fill="#407BFF"/>
<path d="M341.622 52.1901C340.439 51.0071 338.567 50.7341 336.331 51.4231C334.047 52.2571 331.974 53.5806 330.256 55.3008C328.538 57.0211 327.217 59.0963 326.386 61.3811C326.056 62.1827 325.927 63.0525 326.008 63.9154C326.09 64.7783 326.38 65.6084 326.854 66.3341L324.449 90.9171C324.427 91.1462 324.497 91.3747 324.643 91.5525C324.789 91.7303 325 91.8431 325.229 91.8661H325.307C325.521 91.867 325.729 91.7873 325.887 91.6429C326.046 91.4985 326.145 91.2998 326.165 91.0861L328.466 67.5041C329.012 67.7011 329.588 67.798 330.169 67.7901C332.639 67.7901 335.785 66.2821 338.502 63.5521C340.267 61.8683 341.604 59.7867 342.402 57.4811C343.065 55.2451 342.792 53.3601 341.622 52.1901ZM340.738 56.9741C340.029 59.0067 338.848 60.8423 337.293 62.3301C333.692 65.9311 329.766 66.8541 328.362 65.4501C327.995 64.9369 327.771 64.3359 327.711 63.7081C327.652 63.0802 327.76 62.4478 328.024 61.8751C328.735 59.844 329.916 58.0091 331.469 56.5191C332.96 54.9612 334.8 53.7804 336.838 53.0741C337.405 52.8885 337.996 52.7878 338.593 52.7751C339.252 52.746 339.898 52.9691 340.4 53.3991C340.771 53.915 340.998 54.5207 341.058 55.1537C341.117 55.7866 341.007 56.424 340.738 57.0001V56.9741Z" fill="#407BFF"/>
</g>
<defs>
<clipPath id="clip0_412_15957">
<rect width="504" height="470" fill="white"/>
</clipPath>
</defs>
</svg>
