<?xml version="1.0" standalone="no"?>
<!DOCTYPE svg PUBLIC "-//W3C//DTD SVG 20010904//EN"
 "http://www.w3.org/TR/2001/REC-SVG-20010904/DTD/svg10.dtd">
<svg version="1.0" xmlns="http://www.w3.org/2000/svg"
 width="696.000000pt" height="603.000000pt" viewBox="0 0 696.000000 603.000000"
 preserveAspectRatio="xMidYMid meet">

<g transform="translate(0.000000,603.000000) scale(0.100000,-0.100000)"
fill="#000000" stroke="none">
<path d="M4918 5719 c-24 -13 -23 -42 2 -64 11 -10 20 -22 20 -27 0 -4 -9 -17
-20 -28 -26 -26 -25 -46 1 -61 18 -9 27 -7 50 10 35 26 37 26 65 0 15 -14 29
-19 42 -15 33 11 35 37 5 69 l-28 29 23 15 c29 20 30 68 2 76 -11 3 -30 -3
-44 -14 -30 -24 -32 -24 -63 1 -29 23 -32 23 -55 9z"/>
<path d="M1614 5571 c-65 -28 -83 -110 -35 -163 26 -29 35 -33 81 -33 46 0 55
4 81 33 39 43 39 90 2 132 -30 34 -89 48 -129 31z m77 -77 c17 -21 0 -49 -31
-49 -31 0 -48 28 -31 49 8 9 21 16 31 16 10 0 23 -7 31 -16z"/>
<path d="M3208 5196 c-381 -68 -685 -337 -779 -691 -17 -63 -22 -123 -28 -284
l-6 -204 -59 -14 c-105 -24 -181 -87 -226 -185 -19 -41 -20 -72 -20 -679 0
-714 -1 -701 71 -783 22 -25 46 -46 53 -46 7 0 25 -11 39 -24 14 -13 49 -29
77 -35 35 -8 368 -11 1062 -11 1127 0 1080 -3 1173 68 26 21 64 64 84 96 l36
59 0 661 0 661 -23 43 c-51 96 -141 163 -242 180 l-45 8 -6 214 c-6 233 -15
288 -70 408 -121 267 -361 464 -661 542 -106 28 -318 35 -430 16z m297 -67
c112 -13 258 -62 361 -120 101 -57 252 -205 310 -304 94 -162 117 -260 118
-515 l1 -175 -135 0 -135 0 -6 200 c-4 153 -9 210 -22 243 -73 190 -207 320
-395 385 -342 118 -723 -68 -827 -403 -12 -40 -19 -107 -22 -242 l-6 -188
-132 0 -133 0 -7 118 c-12 209 23 397 98 535 90 164 227 293 400 377 180 86
335 113 532 89z m8 -334 c109 -23 192 -69 277 -155 131 -131 163 -228 158
-480 l-3 -145 -555 0 -555 0 -3 165 c-1 92 2 187 8 217 38 181 206 344 410
397 71 19 177 19 263 1z m931 -866 c46 -13 133 -91 152 -136 11 -26 14 -155
14 -663 0 -695 2 -670 -63 -738 -18 -19 -50 -43 -72 -55 l-40 -22 -1024 -3
c-1157 -3 -1091 -7 -1173 73 -81 77 -79 60 -76 766 3 607 3 614 25 654 28 52
68 89 123 114 44 20 60 21 1070 21 703 0 1037 -4 1064 -11z"/>
<path d="M3302 3575 c-110 -31 -184 -92 -227 -186 -23 -52 -27 -71 -23 -133 4
-89 34 -153 100 -216 l49 -47 -15 -154 c-9 -85 -16 -157 -16 -161 0 -5 97 -8
215 -8 202 0 215 1 215 18 0 22 -18 224 -25 270 -3 30 2 40 44 82 74 74 96
127 96 230 0 76 -4 92 -33 148 -67 128 -234 198 -380 157z m256 -140 c40 -18
52 -29 52 -46 0 -12 7 -31 17 -41 23 -26 21 -122 -4 -179 -18 -40 -54 -80
-110 -119 -20 -15 -20 -17 -7 -154 7 -76 11 -143 8 -147 -3 -5 -49 -9 -102 -9
l-98 0 7 73 c4 39 8 97 8 128 1 49 -2 57 -20 62 -11 3 -23 14 -25 24 -3 10
-19 26 -35 35 -89 51 -89 227 -1 322 71 76 208 99 310 51z"/>
<path d="M6292 3855 c-36 -30 -47 -66 -32 -110 14 -44 49 -65 105 -65 38 0 52
5 76 29 48 49 38 125 -21 156 -44 23 -94 19 -128 -10z m89 -45 c21 -12 25 -40
7 -58 -18 -18 -46 -14 -58 9 -9 16 -8 25 6 40 20 22 20 22 45 9z"/>
<path d="M293 3863 c-20 -8 -15 -44 9 -70 l21 -23 -21 -23 c-46 -48 -9 -96 42
-56 30 24 31 24 65 -2 23 -17 32 -19 50 -10 27 15 27 39 -1 68 l-21 23 21 23
c26 27 28 50 7 67 -13 11 -22 10 -51 -3 -31 -15 -38 -16 -64 -2 -30 16 -37 17
-57 8z"/>
<path d="M300 2262 c-68 -34 -80 -104 -26 -158 28 -28 42 -34 76 -34 34 0 48
6 76 34 56 56 42 131 -32 162 -43 18 -52 18 -94 -4z m80 -67 c20 -24 8 -50
-24 -50 -36 0 -56 26 -37 49 17 20 45 21 61 1z"/>
<path d="M2323 2116 c-58 -19 -104 -49 -151 -100 -79 -86 -77 -73 -80 -428 -3
-304 -2 -319 18 -366 12 -27 37 -64 56 -83 19 -18 34 -36 34 -41 0 -4 -250 -9
-555 -10 -481 -3 -557 -5 -565 -18 -13 -21 -12 -26 6 -44 14 -14 237 -16 2303
-16 1765 0 2290 3 2299 12 15 15 15 45 0 54 -6 4 -208 6 -447 5 -240 -1 -489
1 -553 5 l-117 7 34 40 c19 22 45 61 57 86 22 45 23 55 23 356 0 306 0 311
-24 358 -33 67 -101 134 -169 165 l-57 27 -1035 2 c-832 1 -1043 -1 -1077 -11z
m381 -286 c5 -6 4 -37 -2 -79 -18 -106 -18 -108 26 -72 20 18 54 43 75 58 36
25 38 25 57 8 22 -20 50 -71 50 -91 0 -7 -38 -27 -85 -45 -48 -18 -82 -35 -78
-39 4 -4 26 -13 48 -19 66 -20 115 -43 115 -55 0 -6 -11 -29 -23 -51 -32 -56
-54 -56 -127 0 -34 26 -64 44 -67 41 -3 -3 0 -40 6 -82 10 -57 10 -79 1 -88
-12 -12 -114 -16 -125 -4 -4 3 -1 47 7 97 8 50 14 91 13 91 -1 0 -35 -25 -75
-55 -40 -30 -77 -55 -81 -55 -4 0 -21 16 -39 36 -21 25 -30 44 -28 62 3 23 13
29 92 56 l89 29 -69 24 c-109 39 -114 41 -114 61 0 30 43 87 68 90 15 2 44
-13 84 -42 34 -25 63 -44 65 -42 2 2 -1 36 -8 75 -12 83 -9 98 23 104 29 6 90
-2 102 -13z m731 8 c29 -13 28 -9 10 -108 -7 -41 -12 -76 -10 -78 2 -2 27 17
57 41 82 66 97 73 118 51 10 -11 25 -36 34 -56 18 -44 20 -42 -88 -84 l-80
-31 47 -16 c26 -10 67 -24 92 -33 25 -9 45 -21 45 -26 0 -20 -49 -95 -66 -102
-13 -5 -66 22 -84 44 -3 3 -22 19 -43 35 l-38 28 5 -24 c17 -74 25 -154 16
-163 -15 -15 -119 -13 -129 2 -4 7 -1 47 7 88 8 41 12 77 8 81 -3 3 -23 -7
-44 -23 -84 -67 -100 -76 -122 -64 -28 15 -64 88 -51 104 8 10 71 34 161 63
20 6 5 14 -85 44 -38 12 -73 27 -76 32 -15 22 42 117 69 117 5 0 39 -23 76
-51 37 -28 69 -49 71 -47 2 1 -2 30 -7 63 -16 92 -15 98 12 112 31 16 62 16
95 1z m733 6 c17 -3 33 -12 36 -20 3 -7 -1 -44 -9 -81 -21 -98 -20 -99 23 -67
20 16 43 34 51 42 28 27 59 42 74 36 18 -7 60 -91 54 -108 -3 -6 -41 -24 -86
-40 -45 -16 -79 -31 -76 -35 4 -3 41 -17 83 -31 88 -29 99 -48 61 -102 -40
-58 -46 -59 -93 -17 -21 18 -40 27 -47 23 -7 -4 -9 -3 -6 3 3 5 -8 20 -25 33
l-31 23 7 -34 c4 -19 9 -60 13 -91 6 -56 5 -58 -23 -69 -26 -10 -99 -7 -110 4
-3 3 2 44 11 92 9 48 15 88 13 90 -2 2 -36 -21 -77 -51 -68 -50 -76 -53 -95
-41 -12 8 -30 30 -41 50 -26 47 -16 57 85 93 41 14 76 27 78 29 2 2 -34 15
-80 30 -46 15 -87 31 -92 36 -14 13 2 54 33 88 29 31 31 32 58 17 15 -9 50
-32 77 -53 l49 -37 -6 49 c-4 28 -9 67 -13 87 -6 33 -4 39 17 47 29 12 47 13
87 5z"/>
<path d="M6762 1428 c-17 -17 -15 -32 8 -53 25 -23 25 -37 0 -60 -12 -11 -20
-28 -18 -39 4 -29 49 -33 73 -6 23 25 29 25 54 -1 27 -29 65 -22 69 13 2 19
-3 30 -17 38 -26 14 -26 24 0 49 26 24 22 65 -7 69 -11 2 -28 -6 -39 -18 -23
-25 -37 -25 -60 0 -20 23 -45 26 -63 8z"/>
<path d="M1543 1260 c-27 -11 -32 -55 -7 -64 20 -8 198 -8 218 0 16 6 22 49 9
57 -18 10 -200 15 -220 7z"/>
<path d="M1194 1246 c-3 -8 -4 -23 -2 -33 3 -16 16 -18 115 -21 103 -2 113 -1
122 17 24 44 7 51 -115 51 -91 0 -116 -3 -120 -14z"/>
<path d="M5011 1242 c-6 -11 -6 -24 0 -35 9 -14 26 -17 118 -17 116 0 139 9
126 50 -6 19 -14 20 -120 20 -99 0 -116 -2 -124 -18z"/>
<path d="M5343 1244 c-3 -9 -2 -24 4 -33 15 -24 221 -24 236 0 6 9 7 24 4 33
-9 24 -235 24 -244 0z"/>
<path d="M5796 1074 c-9 -8 -16 -19 -16 -24 0 -5 7 -16 16 -24 12 -12 37 -16
109 -16 113 0 125 4 125 40 0 36 -12 40 -125 40 -72 0 -97 -4 -109 -16z"/>
<path d="M703 1064 c-3 -9 -2 -24 4 -33 15 -24 221 -24 236 0 6 9 7 24 4 33
-9 24 -235 24 -244 0z"/>
<path d="M1267 653 c-13 -12 -7 -40 13 -58 25 -23 25 -37 0 -60 -12 -11 -20
-28 -18 -39 4 -30 45 -33 74 -5 l24 22 24 -22 c51 -48 104 3 57 53 l-21 23 20
18 c28 25 23 69 -7 73 -13 2 -29 -5 -40 -17 -22 -26 -35 -26 -58 -1 -18 19
-55 27 -68 13z"/>
<path d="M4194 500 c-56 -22 -74 -118 -31 -158 50 -47 118 -48 162 -2 47 49
29 137 -31 160 -30 12 -71 12 -100 0z m86 -95 c0 -15 -7 -26 -20 -30 -41 -13
-70 43 -33 64 25 13 53 -5 53 -34z"/>
</g>
</svg>
