<svg width="15" height="15" viewBox="0 0 15 15" fill="none" xmlns="http://www.w3.org/2000/svg">
<g id="settings-2">
<path id="Vector" d="M12.5 4.375H6.875M8.75 10.625H3.125M8.75 10.625C8.75 11.6605 9.58947 12.5 10.625 12.5C11.6605 12.5 12.5 11.6605 12.5 10.625C12.5 9.58947 11.6605 8.75 10.625 8.75C9.58947 8.75 8.75 9.58947 8.75 10.625ZM6.25 4.375C6.25 5.41053 5.41053 6.25 4.375 6.25C3.33947 6.25 2.5 5.41053 2.5 4.375C2.5 3.33947 3.33947 2.5 4.375 2.5C5.41053 2.5 6.25 3.33947 6.25 4.375Z" stroke="#18181B" stroke-width="2" stroke-linecap="round" stroke-linejoin="round"/>
</g>
</svg>
